<svg xmlns="http://www.w3.org/2000/svg" viewBox="0 0 286 304" preserveAspectRatio="xMidYMid meet">
<rect x="0" y="0" width="286" height="286" fill="#1a1a22"/>
<line x1="0" y1="0" x2="286" y2="0" stroke="#262633"/>
<line x1="0" y1="0" x2="0" y2="286" stroke="#262633"/>
<line x1="0" y1="22" x2="286" y2="22" stroke="#262633"/>
<line x1="22" y1="0" x2="22" y2="286" stroke="#262633"/>
<line x1="0" y1="44" x2="286" y2="44" stroke="#262633"/>
<line x1="44" y1="0" x2="44" y2="286" stroke="#262633"/>
<line x1="0" y1="66" x2="286" y2="66" stroke="#262633"/>
<line x1="66" y1="0" x2="66" y2="286" stroke="#262633"/>
<line x1="0" y1="88" x2="286" y2="88" stroke="#262633"/>
<line x1="88" y1="0" x2="88" y2="286" stroke="#262633"/>
<line x1="0" y1="110" x2="286" y2="110" stroke="#262633"/>
<line x1="110" y1="0" x2="110" y2="286" stroke="#262633"/>
<line x1="0" y1="132" x2="286" y2="132" stroke="#262633"/>
<line x1="132" y1="0" x2="132" y2="286" stroke="#262633"/>
<line x1="0" y1="154" x2="286" y2="154" stroke="#262633"/>
<line x1="154" y1="0" x2="154" y2="286" stroke="#262633"/>
<line x1="0" y1="176" x2="286" y2="176" stroke="#262633"/>
<line x1="176" y1="0" x2="176" y2="286" stroke="#262633"/>
<line x1="0" y1="198" x2="286" y2="198" stroke="#262633"/>
<line x1="198" y1="0" x2="198" y2="286" stroke="#262633"/>
<line x1="0" y1="220" x2="286" y2="220" stroke="#262633"/>
<line x1="220" y1="0" x2="220" y2="286" stroke="#262633"/>
<line x1="0" y1="242" x2="286" y2="242" stroke="#262633"/>
<line x1="242" y1="0" x2="242" y2="286" stroke="#262633"/>
<line x1="0" y1="264" x2="286" y2="264" stroke="#262633"/>
<line x1="264" y1="0" x2="264" y2="286" stroke="#262633"/>
<line x1="0" y1="286" x2="286" y2="286" stroke="#262633"/>
<line x1="286" y1="0" x2="286" y2="286" stroke="#262633"/>
<rect x="154" y="242" width="22" height="22" fill="#a33" opacity="0.18"/>
<rect x="176" y="220" width="22" height="22" fill="#a33" opacity="0.18"/>
<rect x="176" y="242" width="22" height="22" fill="#a33" opacity="0.18"/>
<polyline points="11.0,88.0 11.0,90.8 11.0,93.5 11.0,96.3 11.0,99.0 11.0,101.8 11.0,104.5 11.0,107.3 11.0,110.0" fill="none" stroke="#7088aa" stroke-width="1.8" stroke-linecap="round"/>
<polyline points="11.0,110.0 11.0,112.8 11.0,115.5 11.0,118.3 11.0,121.0 11.0,123.8 11.0,126.5 11.0,129.3 11.0,132.0" fill="none" stroke="#7088aa" stroke-width="1.8" stroke-linecap="round"/>
<polyline points="11.0,154.0 11.0,151.3 11.0,148.5 11.0,145.8 11.0,143.0 11.0,140.3 11.0,137.5 11.0,134.8 11.0,132.0" fill="none" stroke="#7088aa" stroke-width="1.8" stroke-linecap="round"/>
<polyline points="44.0,99.0 41.9,99.2 39.8,99.8 37.9,100.9 36.2,102.2 34.9,103.9 33.8,105.8 33.2,107.9 33.0,110.0" fill="none" stroke="#7088aa" stroke-width="1.8" stroke-linecap="round"/>
<polyline points="33.0,132.0 33.0,129.3 33.0,126.5 33.0,123.8 33.0,121.0 33.0,118.3 33.0,115.5 33.0,112.8 33.0,110.0" fill="none" stroke="#7088aa" stroke-width="1.8" stroke-linecap="round"/>
<polyline points="44.0,99.0 46.8,99.0 49.5,99.0 52.3,99.0 55.0,99.0 57.8,99.0 60.5,99.0 63.3,99.0 66.0,99.0" fill="none" stroke="#7088aa" stroke-width="1.8" stroke-linecap="round"/>
<polyline points="66.0,11.0 68.8,11.0 71.5,11.0 74.3,11.0 77.0,11.0 79.8,11.0 82.5,11.0 85.3,11.0 88.0,11.0" fill="none" stroke="#7088aa" stroke-width="1.8" stroke-linecap="round"/>
<polyline points="66.0,99.0 68.8,99.0 71.5,99.0 74.3,99.0 77.0,99.0 79.8,99.0 82.5,99.0 85.3,99.0 88.0,99.0" fill="none" stroke="#7088aa" stroke-width="1.8" stroke-linecap="round"/>
<polyline points="77.0,154.0 77.0,156.8 77.0,159.5 77.0,162.3 77.0,165.0 77.0,167.8 77.0,170.5 77.0,173.3 77.0,176.0" fill="none" stroke="#7088aa" stroke-width="1.8" stroke-linecap="round"/>
<polyline points="77.0,198.0 77.0,195.3 77.0,192.5 77.0,189.8 77.0,187.0 77.0,184.3 77.0,181.5 77.0,178.8 77.0,176.0" fill="none" stroke="#7088aa" stroke-width="1.8" stroke-linecap="round"/>
<polyline points="110.0,11.0 107.3,11.0 104.5,11.0 101.8,11.0 99.0,11.0 96.3,11.0 93.5,11.0 90.8,11.0 88.0,11.0" fill="none" stroke="#7088aa" stroke-width="1.8" stroke-linecap="round"/>
<polyline points="88.0,99.0 90.8,99.0 93.5,99.0 96.3,99.0 99.0,99.0 101.8,99.0 104.5,99.0 107.3,99.0 110.0,99.0" fill="none" stroke="#7088aa" stroke-width="1.8" stroke-linecap="round"/>
<polyline points="110.0,11.0 112.8,11.0 115.5,11.0 118.3,11.0 121.0,11.0 123.8,11.0 126.5,11.0 129.3,11.0 132.0,11.0" fill="none" stroke="#7088aa" stroke-width="1.8" stroke-linecap="round"/>
<polyline points="110.0,99.0 112.8,99.0 115.5,99.0 118.3,99.0 121.0,99.0 123.8,99.0 126.5,99.0 129.3,99.0 132.0,99.0" fill="none" stroke="#7088aa" stroke-width="1.8" stroke-linecap="round"/>
<polyline points="154.0,11.0 151.3,11.0 148.5,11.0 145.8,11.0 143.0,11.0 140.3,11.0 137.5,11.0 134.8,11.0 132.0,11.0" fill="none" stroke="#7088aa" stroke-width="1.8" stroke-linecap="round"/>
<polyline points="154.0,33.0 151.9,33.2 149.8,33.8 147.9,34.9 146.2,36.2 144.9,37.9 143.8,39.8 143.2,41.9 143.0,44.0" fill="none" stroke="#7088aa" stroke-width="1.8" stroke-linecap="round"/>
<polyline points="143.0,44.0 143.2,46.1 143.8,48.2 144.9,50.1 146.2,51.8 147.9,53.1 149.8,54.2 151.9,54.8 154.0,55.0" fill="none" stroke="#7088aa" stroke-width="1.8" stroke-linecap="round"/>
<polyline points="132.0,77.0 134.8,77.0 137.5,77.0 140.3,77.0 143.0,77.0 145.8,77.0 148.5,77.0 151.3,77.0 154.0,77.0" fill="none" stroke="#7088aa" stroke-width="1.8" stroke-linecap="round"/>
<polyline points="154.0,99.0 151.3,99.0 148.5,99.0 145.8,99.0 143.0,99.0 140.3,99.0 137.5,99.0 134.8,99.0 132.0,99.0" fill="none" stroke="#7088aa" stroke-width="1.8" stroke-linecap="round"/>
<polyline points="143.0,132.0 143.0,134.8 143.0,137.5 143.0,140.3 143.0,143.0 143.0,145.8 143.0,148.5 143.0,151.3 143.0,154.0" fill="none" stroke="#7088aa" stroke-width="1.8" stroke-linecap="round"/>
<polyline points="143.0,176.0 143.0,173.3 143.0,170.5 143.0,167.8 143.0,165.0 143.0,162.3 143.0,159.5 143.0,156.8 143.0,154.0" fill="none" stroke="#7088aa" stroke-width="1.8" stroke-linecap="round"/>
<polyline points="132.0,187.0 134.8,187.0 137.5,187.0 140.3,187.0 143.0,187.0 145.8,187.0 148.5,187.0 151.3,187.0 154.0,187.0" fill="none" stroke="#7088aa" stroke-width="1.8" stroke-linecap="round"/>
<polyline points="154.0,33.0 156.8,33.0 159.5,33.0 162.3,33.0 165.0,33.0 167.8,33.0 170.5,33.0 173.3,33.0 176.0,33.0" fill="none" stroke="#7088aa" stroke-width="1.8" stroke-linecap="round"/>
<polyline points="165.0,66.0 164.8,63.9 164.2,61.8 163.1,59.9 161.8,58.2 160.1,56.9 158.2,55.8 156.1,55.2 154.0,55.0" fill="none" stroke="#7088aa" stroke-width="1.8" stroke-linecap="round"/>
<polyline points="154.0,77.0 156.1,76.8 158.2,76.2 160.1,75.1 161.8,73.8 163.1,72.1 164.2,70.2 164.8,68.1 165.0,66.0" fill="none" stroke="#7088aa" stroke-width="1.8" stroke-linecap="round"/>
<polyline points="176.0,121.0 173.9,121.2 171.8,121.8 169.9,122.9 168.2,124.2 166.9,125.9 165.8,127.8 165.2,129.9 165.0,132.0" fill="none" stroke="#7088aa" stroke-width="1.8" stroke-linecap="round"/>
<polyline points="165.0,132.0 165.0,134.8 165.0,137.5 165.0,140.3 165.0,143.0 165.0,145.8 165.0,148.5 165.0,151.3 165.0,154.0" fill="none" stroke="#7088aa" stroke-width="1.8" stroke-linecap="round"/>
<polyline points="165.0,154.0 165.2,156.1 165.8,158.2 166.9,160.1 168.2,161.8 169.9,163.1 171.8,164.2 173.9,164.8 176.0,165.0" fill="none" stroke="#7088aa" stroke-width="1.8" stroke-linecap="round"/>
<polyline points="198.0,11.0 195.9,11.2 193.8,11.8 191.9,12.9 190.2,14.2 188.9,15.9 187.8,17.8 187.2,19.9 187.0,22.0" fill="none" stroke="#7088aa" stroke-width="1.8" stroke-linecap="round"/>
<polyline points="176.0,33.0 178.1,32.8 180.2,32.2 182.1,31.1 183.8,29.8 185.1,28.1 186.2,26.2 186.8,24.1 187.0,22.0" fill="none" stroke="#7088aa" stroke-width="1.8" stroke-linecap="round"/>
<polyline points="198.0,55.0 195.9,55.2 193.8,55.8 191.9,56.9 190.2,58.2 188.9,59.9 187.8,61.8 187.2,63.9 187.0,66.0" fill="none" stroke="#7088aa" stroke-width="1.8" stroke-linecap="round"/>
<polyline points="187.0,66.0 187.0,68.8 187.0,71.5 187.0,74.3 187.0,77.0 187.0,79.8 187.0,82.5 187.0,85.3 187.0,88.0" fill="none" stroke="#7088aa" stroke-width="1.8" stroke-linecap="round"/>
<polyline points="187.0,88.0 187.0,90.8 187.0,93.5 187.0,96.3 187.0,99.0 187.0,101.8 187.0,104.5 187.0,107.3 187.0,110.0" fill="none" stroke="#7088aa" stroke-width="1.8" stroke-linecap="round"/>
<polyline points="176.0,121.0 178.1,120.8 180.2,120.2 182.1,119.1 183.8,117.8 185.1,116.1 186.2,114.2 186.8,112.1 187.0,110.0" fill="none" stroke="#7088aa" stroke-width="1.8" stroke-linecap="round"/>
<polyline points="176.0,165.0 178.8,165.0 181.5,165.0 184.3,165.0 187.0,165.0 189.8,165.0 192.5,165.0 195.3,165.0 198.0,165.0" fill="none" stroke="#7088aa" stroke-width="1.8" stroke-linecap="round"/>
<polyline points="198.0,187.0 195.9,187.2 193.8,187.8 191.9,188.9 190.2,190.2 188.9,191.9 187.8,193.8 187.2,195.9 187.0,198.0" fill="none" stroke="#7088aa" stroke-width="1.8" stroke-linecap="round"/>
<polyline points="187.0,198.0 187.2,200.1 187.8,202.2 188.9,204.1 190.2,205.8 191.9,207.1 193.8,208.2 195.9,208.8 198.0,209.0" fill="none" stroke="#7088aa" stroke-width="1.8" stroke-linecap="round"/>
<polyline points="209.0,22.0 208.8,19.9 208.2,17.8 207.1,15.9 205.8,14.2 204.1,12.9 202.2,11.8 200.1,11.2 198.0,11.0" fill="none" stroke="#7088aa" stroke-width="1.8" stroke-linecap="round"/>
<polyline points="209.0,22.0 209.0,24.8 209.0,27.5 209.0,30.2 209.0,33.0 209.0,35.8 209.0,38.5 209.0,41.3 209.0,44.0" fill="none" stroke="#7088aa" stroke-width="1.8" stroke-linecap="round"/>
<polyline points="198.0,55.0 200.1,54.8 202.2,54.2 204.1,53.1 205.8,51.8 207.1,50.1 208.2,48.2 208.8,46.1 209.0,44.0" fill="none" stroke="#7088aa" stroke-width="1.8" stroke-linecap="round"/>
<polyline points="209.0,176.0 208.8,173.9 208.2,171.8 207.1,169.9 205.8,168.2 204.1,166.9 202.2,165.8 200.1,165.2 198.0,165.0" fill="none" stroke="#7088aa" stroke-width="1.8" stroke-linecap="round"/>
<polyline points="198.0,187.0 200.1,186.8 202.2,186.2 204.1,185.1 205.8,183.8 207.1,182.1 208.2,180.2 208.8,178.1 209.0,176.0" fill="none" stroke="#7088aa" stroke-width="1.8" stroke-linecap="round"/>
<polyline points="209.0,220.0 208.8,217.9 208.2,215.8 207.1,213.9 205.8,212.2 204.1,210.9 202.2,209.8 200.1,209.2 198.0,209.0" fill="none" stroke="#7088aa" stroke-width="1.8" stroke-linecap="round"/>
<polyline points="209.0,220.0 209.0,222.8 209.0,225.5 209.0,228.3 209.0,231.0 209.0,233.8 209.0,236.5 209.0,239.3 209.0,242.0" fill="none" stroke="#7088aa" stroke-width="1.8" stroke-linecap="round"/>
<polyline points="209.0,242.0 209.2,244.1 209.8,246.2 210.9,248.1 212.2,249.8 213.9,251.1 215.8,252.2 217.9,252.8 220.0,253.0" fill="none" stroke="#7088aa" stroke-width="1.8" stroke-linecap="round"/>
<polyline points="242.0,143.0 239.9,143.2 237.8,143.8 235.9,144.9 234.2,146.2 232.9,147.9 231.8,149.8 231.2,151.9 231.0,154.0" fill="none" stroke="#7088aa" stroke-width="1.8" stroke-linecap="round"/>
<polyline points="231.0,154.0 231.0,156.8 231.0,159.5 231.0,162.3 231.0,165.0 231.0,167.8 231.0,170.5 231.0,173.3 231.0,176.0" fill="none" stroke="#7088aa" stroke-width="1.8" stroke-linecap="round"/>
<polyline points="231.0,176.0 231.0,178.8 231.0,181.5 231.0,184.3 231.0,187.0 231.0,189.8 231.0,192.5 231.0,195.3 231.0,198.0" fill="none" stroke="#7088aa" stroke-width="1.8" stroke-linecap="round"/>
<polyline points="231.0,220.0 231.0,217.3 231.0,214.5 231.0,211.8 231.0,209.0 231.0,206.3 231.0,203.5 231.0,200.8 231.0,198.0" fill="none" stroke="#7088aa" stroke-width="1.8" stroke-linecap="round"/>
<polyline points="231.0,220.0 231.0,222.8 231.0,225.5 231.0,228.3 231.0,231.0 231.0,233.8 231.0,236.5 231.0,239.3 231.0,242.0" fill="none" stroke="#7088aa" stroke-width="1.8" stroke-linecap="round"/>
<polyline points="220.0,253.0 222.1,252.8 224.2,252.2 226.1,251.1 227.8,249.8 229.1,248.1 230.2,246.2 230.8,244.1 231.0,242.0" fill="none" stroke="#7088aa" stroke-width="1.8" stroke-linecap="round"/>
<polyline points="242.0,143.0 244.8,143.0 247.5,143.0 250.3,143.0 253.0,143.0 255.8,143.0 258.5,143.0 261.3,143.0 264.0,143.0" fill="none" stroke="#7088aa" stroke-width="1.8" stroke-linecap="round"/>
<polyline points="275.0,154.0 274.8,151.9 274.2,149.8 273.1,147.9 271.8,146.2 270.1,144.9 268.2,143.8 266.1,143.2 264.0,143.0" fill="none" stroke="#7088aa" stroke-width="1.8" stroke-linecap="round"/>
<polyline points="275.0,176.0 275.0,173.3 275.0,170.5 275.0,167.8 275.0,165.0 275.0,162.3 275.0,159.5 275.0,156.8 275.0,154.0" fill="none" stroke="#7088aa" stroke-width="1.8" stroke-linecap="round"/>
<rect x="7" y="7" width="8" height="8" fill="#5f5"/>
<circle cx="11" cy="33" r="4" fill="#dca"/>
<line x1="11" y1="33" x2="11" y2="23.1" stroke="#dca" stroke-width="2.6"/>
<line x1="11" y1="33" x2="20.9" y2="33" stroke="#dca" stroke-width="2.6"/>
<line x1="11" y1="33" x2="11" y2="42.9" stroke="#dca" stroke-width="2.6"/>
<polyline points="11.0,44.0 11.0,46.8 11.0,49.5 11.0,52.3 11.0,55.0 11.0,57.8 11.0,60.5 11.0,63.3 11.0,66.0" fill="none" stroke="#9bb" stroke-width="2.6" stroke-linecap="round"/>
<polyline points="11.0,66.0 11.0,68.8 11.0,71.5 11.0,74.3 11.0,77.0 11.0,79.8 11.0,82.5 11.0,85.3 11.0,88.0" fill="none" stroke="#9bb" stroke-width="2.6" stroke-linecap="round"/>
<polyline points="11.0,88.0 11.0,90.8 11.0,93.5 11.0,96.3 11.0,99.0 11.0,101.8 11.0,104.5 11.0,107.3 11.0,110.0" fill="none" stroke="#ffa500" stroke-width="2.6" stroke-linecap="round"/>
<polyline points="11.0,110.0 11.0,112.8 11.0,115.5 11.0,118.3 11.0,121.0 11.0,123.8 11.0,126.5 11.0,129.3 11.0,132.0" fill="none" stroke="#5cf" stroke-width="2.6" stroke-linecap="round"/>
<polyline points="11.0,154.0 11.0,151.3 11.0,148.5 11.0,145.8 11.0,143.0 11.0,140.3 11.0,137.5 11.0,134.8 11.0,132.0" fill="none" stroke="#ffa500" stroke-width="2.6" stroke-linecap="round"/>
<polyline points="11.0,154.0 11.2,156.1 11.8,158.2 12.9,160.1 14.2,161.8 15.9,163.1 17.8,164.2 19.9,164.8 22.0,165.0" fill="none" stroke="#9bb" stroke-width="2.6" stroke-linecap="round"/>
<polyline points="44.0,11.0 41.9,11.2 39.8,11.8 37.9,12.9 36.2,14.2 34.9,15.9 33.8,17.8 33.2,19.9 33.0,22.0" fill="none" stroke="#9bb" stroke-width="2.6" stroke-linecap="round"/>
<circle cx="33" cy="33" r="4" fill="#dca"/>
<line x1="33" y1="33" x2="33" y2="23.1" stroke="#dca" stroke-width="2.6"/>
<line x1="33" y1="33" x2="42.9" y2="33" stroke="#dca" stroke-width="2.6"/>
<line x1="33" y1="33" x2="33" y2="42.9" stroke="#dca" stroke-width="2.6"/>
<line x1="33" y1="33" x2="23.1" y2="33" stroke="#dca" stroke-width="2.6"/>
<polyline points="33.0,44.0 33.2,46.1 33.8,48.2 34.9,50.1 36.2,51.8 37.9,53.1 39.8,54.2 41.9,54.8 44.0,55.0" fill="none" stroke="#9bb" stroke-width="2.6" stroke-linecap="round"/>
<rect x="29" y="73" width="8" height="8" fill="#5f5"/>
<polyline points="44.0,99.0 41.9,99.2 39.8,99.8 37.9,100.9 36.2,102.2 34.9,103.9 33.8,105.8 33.2,107.9 33.0,110.0" fill="none" stroke="#5cf" stroke-width="2.6" stroke-linecap="round"/>
<polyline points="33.0,132.0 33.0,129.3 33.0,126.5 33.0,123.8 33.0,121.0 33.0,118.3 33.0,115.5 33.0,112.8 33.0,110.0" fill="none" stroke="#ffa500" stroke-width="2.6" stroke-linecap="round"/>
<polyline points="33.0,132.0 33.2,134.1 33.8,136.2 34.9,138.1 36.2,139.8 37.9,141.1 39.8,142.2 41.9,142.8 44.0,143.0" fill="none" stroke="#9bb" stroke-width="2.6" stroke-linecap="round"/>
<polyline points="22.0,165.0 24.8,165.0 27.5,165.0 30.2,165.0 33.0,165.0 35.8,165.0 38.5,165.0 41.3,165.0 44.0,165.0" fill="none" stroke="#9bb" stroke-width="2.6" stroke-linecap="round"/>
<polyline points="44.0,11.0 46.8,11.0 49.5,11.0 52.3,11.0 55.0,11.0 57.8,11.0 60.5,11.0 63.3,11.0 66.0,11.0" fill="none" stroke="#9bb" stroke-width="2.6" stroke-linecap="round"/>
<polyline points="44.0,33.0 46.8,33.0 49.5,33.0 52.3,33.0 55.0,33.0 57.8,33.0 60.5,33.0 63.3,33.0 66.0,33.0" fill="none" stroke="#9bb" stroke-width="2.6" stroke-linecap="round"/>
<polyline points="44.0,55.0 46.8,55.0 49.5,55.0 52.3,55.0 55.0,55.0 57.8,55.0 60.5,55.0 63.3,55.0 66.0,55.0" fill="none" stroke="#9bb" stroke-width="2.6" stroke-linecap="round"/>
<polyline points="44.0,77.0 46.8,77.0 49.5,77.0 52.3,77.0 55.0,77.0 57.8,77.0 60.5,77.0 63.3,77.0 66.0,77.0" fill="none" stroke="#9bb" stroke-width="2.6" stroke-linecap="round"/>
<polyline points="44.0,99.0 46.8,99.0 49.5,99.0 52.3,99.0 55.0,99.0 57.8,99.0 60.5,99.0 63.3,99.0 66.0,99.0" fill="none" stroke="#5cf" stroke-width="2.6" stroke-linecap="round"/>
<polyline points="66.0,121.0 63.9,121.2 61.8,121.8 59.9,122.9 58.2,124.2 56.9,125.9 55.8,127.8 55.2,129.9 55.0,132.0" fill="none" stroke="#9bb" stroke-width="2.6" stroke-linecap="round"/>
<polyline points="44.0,143.0 46.1,142.8 48.2,142.2 50.1,141.1 51.8,139.8 53.1,138.1 54.2,136.2 54.8,134.1 55.0,132.0" fill="none" stroke="#9bb" stroke-width="2.6" stroke-linecap="round"/>
<polyline points="55.0,176.0 54.8,173.9 54.2,171.8 53.1,169.9 51.8,168.2 50.1,166.9 48.2,165.8 46.1,165.2 44.0,165.0" fill="none" stroke="#9bb" stroke-width="2.6" stroke-linecap="round"/>
<polyline points="55.0,176.0 55.0,178.8 55.0,181.5 55.0,184.3 55.0,187.0 55.0,189.8 55.0,192.5 55.0,195.3 55.0,198.0" fill="none" stroke="#9bb" stroke-width="2.6" stroke-linecap="round"/>
<polyline points="55.0,198.0 55.2,200.1 55.8,202.2 56.9,204.1 58.2,205.8 59.9,207.1 61.8,208.2 63.9,208.8 66.0,209.0" fill="none" stroke="#9bb" stroke-width="2.6" stroke-linecap="round"/>
<polyline points="66.0,11.0 68.8,11.0 71.5,11.0 74.3,11.0 77.0,11.0 79.8,11.0 82.5,11.0 85.3,11.0 88.0,11.0" fill="none" stroke="#ffa500" stroke-width="2.6" stroke-linecap="round"/>
<circle cx="77" cy="33" r="4" fill="#dca"/>
<line x1="77" y1="33" x2="86.9" y2="33" stroke="#dca" stroke-width="2.6"/>
<line x1="77" y1="33" x2="77" y2="42.9" stroke="#dca" stroke-width="2.6"/>
<line x1="77" y1="33" x2="67.1" y2="33" stroke="#dca" stroke-width="2.6"/>
<circle cx="77" cy="55" r="4" fill="#dca"/>
<line x1="77" y1="55" x2="77" y2="64.9" stroke="#dca" stroke-width="2.6"/>
<line x1="77" y1="55" x2="67.1" y2="55" stroke="#dca" stroke-width="2.6"/>
<line x1="77" y1="55" x2="77" y2="45.1" stroke="#dca" stroke-width="2.6"/>
<circle cx="77" cy="77" r="4" fill="#dca"/>
<line x1="77" y1="77" x2="67.1" y2="77" stroke="#dca" stroke-width="2.6"/>
<line x1="77" y1="77" x2="77" y2="67.1" stroke="#dca" stroke-width="2.6"/>
<line x1="77" y1="77" x2="86.9" y2="77" stroke="#dca" stroke-width="2.6"/>
<polyline points="66.0,99.0 68.8,99.0 71.5,99.0 74.3,99.0 77.0,99.0 79.8,99.0 82.5,99.0 85.3,99.0 88.0,99.0" fill="none" stroke="#5cf" stroke-width="2.6" stroke-linecap="round"/>
<circle cx="77" cy="121" r="4" fill="#dca"/>
<line x1="77" y1="121" x2="86.9" y2="121" stroke="#dca" stroke-width="2.6"/>
<line x1="77" y1="121" x2="77" y2="130.9" stroke="#dca" stroke-width="2.6"/>
<line x1="77" y1="121" x2="67.1" y2="121" stroke="#dca" stroke-width="2.6"/>
<polyline points="77.0,132.0 77.0,134.8 77.0,137.5 77.0,140.3 77.0,143.0 77.0,145.8 77.0,148.5 77.0,151.3 77.0,154.0" fill="none" stroke="#9bb" stroke-width="2.6" stroke-linecap="round"/>
<polyline points="77.0,154.0 77.0,156.8 77.0,159.5 77.0,162.3 77.0,165.0 77.0,167.8 77.0,170.5 77.0,173.3 77.0,176.0" fill="none" stroke="#ffa500" stroke-width="2.6" stroke-linecap="round"/>
<polyline points="77.0,198.0 77.0,195.3 77.0,192.5 77.0,189.8 77.0,187.0 77.0,184.3 77.0,181.5 77.0,178.8 77.0,176.0" fill="none" stroke="#ffa500" stroke-width="2.6" stroke-linecap="round"/>
<circle cx="77" cy="209" r="4" fill="#dca"/>
<line x1="77" y1="209" x2="77" y2="218.9" stroke="#dca" stroke-width="2.6"/>
<line x1="77" y1="209" x2="67.1" y2="209" stroke="#dca" stroke-width="2.6"/>
<line x1="77" y1="209" x2="77" y2="199.1" stroke="#dca" stroke-width="2.6"/>
<polyline points="77.0,220.0 77.2,222.1 77.8,224.2 78.9,226.1 80.2,227.8 81.9,229.1 83.8,230.2 85.9,230.8 88.0,231.0" fill="none" stroke="#9bb" stroke-width="2.6" stroke-linecap="round"/>
<rect x="73" y="249" width="8" height="8" fill="#5f5"/>
<polyline points="110.0,11.0 107.3,11.0 104.5,11.0 101.8,11.0 99.0,11.0 96.3,11.0 93.5,11.0 90.8,11.0 88.0,11.0" fill="none" stroke="#ffa500" stroke-width="2.6" stroke-linecap="round"/>
<polyline points="99.0,44.0 98.8,41.9 98.2,39.8 97.1,37.9 95.8,36.2 94.1,34.9 92.2,33.8 90.1,33.2 88.0,33.0" fill="none" stroke="#9bb" stroke-width="2.6" stroke-linecap="round"/>
<polyline points="99.0,44.0 99.2,46.1 99.8,48.2 100.9,50.1 102.2,51.8 103.9,53.1 105.8,54.2 107.9,54.8 110.0,55.0" fill="none" stroke="#9bb" stroke-width="2.6" stroke-linecap="round"/>
<polyline points="88.0,77.0 90.8,77.0 93.5,77.0 96.3,77.0 99.0,77.0 101.8,77.0 104.5,77.0 107.3,77.0 110.0,77.0" fill="none" stroke="#9bb" stroke-width="2.6" stroke-linecap="round"/>
<polyline points="88.0,99.0 90.8,99.0 93.5,99.0 96.3,99.0 99.0,99.0 101.8,99.0 104.5,99.0 107.3,99.0 110.0,99.0" fill="none" stroke="#5cf" stroke-width="2.6" stroke-linecap="round"/>
<polyline points="99.0,132.0 98.8,129.9 98.2,127.8 97.1,125.9 95.8,124.2 94.1,122.9 92.2,121.8 90.1,121.2 88.0,121.0" fill="none" stroke="#9bb" stroke-width="2.6" stroke-linecap="round"/>
<circle cx="99" cy="143" r="4" fill="#dca"/>
<line x1="99" y1="143" x2="99" y2="133.1" stroke="#dca" stroke-width="2.6"/>
<line x1="99" y1="143" x2="108.9" y2="143" stroke="#dca" stroke-width="2.6"/>
<line x1="99" y1="143" x2="99" y2="152.9" stroke="#dca" stroke-width="2.6"/>
<polyline points="99.0,154.0 99.2,156.1 99.8,158.2 100.9,160.1 102.2,161.8 103.9,163.1 105.8,164.2 107.9,164.8 110.0,165.0" fill="none" stroke="#9bb" stroke-width="2.6" stroke-linecap="round"/>
<rect x="95" y="183" width="8" height="8" fill="#5f5"/>
<polyline points="110.0,209.0 107.9,209.2 105.8,209.8 103.9,210.9 102.2,212.2 100.9,213.9 99.8,215.8 99.2,217.9 99.0,220.0" fill="none" stroke="#9bb" stroke-width="2.6" stroke-linecap="round"/>
<circle cx="99" cy="231" r="4" fill="#dca"/>
<line x1="99" y1="231" x2="99" y2="240.9" stroke="#dca" stroke-width="2.6"/>
<line x1="99" y1="231" x2="89.1" y2="231" stroke="#dca" stroke-width="2.6"/>
<line x1="99" y1="231" x2="99" y2="221.1" stroke="#dca" stroke-width="2.6"/>
<polyline points="88.0,253.0 90.1,252.8 92.2,252.2 94.1,251.1 95.8,249.8 97.1,248.1 98.2,246.2 98.8,244.1 99.0,242.0" fill="none" stroke="#9bb" stroke-width="2.6" stroke-linecap="round"/>
<polyline points="110.0,11.0 112.8,11.0 115.5,11.0 118.3,11.0 121.0,11.0 123.8,11.0 126.5,11.0 129.3,11.0 132.0,11.0" fill="none" stroke="#ffa500" stroke-width="2.6" stroke-linecap="round"/>
<rect x="117" y="29" width="8" height="8" fill="#5f5"/>
<polyline points="110.0,55.0 112.1,54.8 114.2,54.2 116.1,53.1 117.8,51.8 119.1,50.1 120.2,48.2 120.8,46.1 121.0,44.0" fill="none" stroke="#9bb" stroke-width="2.6" stroke-linecap="round"/>
<polyline points="110.0,77.0 112.8,77.0 115.5,77.0 118.3,77.0 121.0,77.0 123.8,77.0 126.5,77.0 129.3,77.0 132.0,77.0" fill="none" stroke="#9bb" stroke-width="2.6" stroke-linecap="round"/>
<polyline points="110.0,99.0 112.8,99.0 115.5,99.0 118.3,99.0 121.0,99.0 123.8,99.0 126.5,99.0 129.3,99.0 132.0,99.0" fill="none" stroke="#5cf" stroke-width="2.6" stroke-linecap="round"/>
<rect x="117" y="117" width="8" height="8" fill="#5f5"/>
<polyline points="110.0,143.0 112.1,142.8 114.2,142.2 116.1,141.1 117.8,139.8 119.1,138.1 120.2,136.2 120.8,134.1 121.0,132.0" fill="none" stroke="#9bb" stroke-width="2.6" stroke-linecap="round"/>
<polyline points="121.0,176.0 120.8,173.9 120.2,171.8 119.1,169.9 117.8,168.2 116.1,166.9 114.2,165.8 112.1,165.2 110.0,165.0" fill="none" stroke="#9bb" stroke-width="2.6" stroke-linecap="round"/>
<circle cx="121" cy="187" r="4" fill="#dca"/>
<line x1="121" y1="187" x2="111.1" y2="187" stroke="#dca" stroke-width="2.6"/>
<line x1="121" y1="187" x2="121" y2="177.1" stroke="#dca" stroke-width="2.6"/>
<line x1="121" y1="187" x2="130.9" y2="187" stroke="#dca" stroke-width="2.6"/>
<polyline points="121.0,220.0 120.8,217.9 120.2,215.8 119.1,213.9 117.8,212.2 116.1,210.9 114.2,209.8 112.1,209.2 110.0,209.0" fill="none" stroke="#9bb" stroke-width="2.6" stroke-linecap="round"/>
<polyline points="121.0,220.0 121.2,222.1 121.8,224.2 122.9,226.1 124.2,227.8 125.9,229.1 127.8,230.2 129.9,230.8 132.0,231.0" fill="none" stroke="#9bb" stroke-width="2.6" stroke-linecap="round"/>
<polyline points="154.0,11.0 151.3,11.0 148.5,11.0 145.8,11.0 143.0,11.0 140.3,11.0 137.5,11.0 134.8,11.0 132.0,11.0" fill="none" stroke="#ffa500" stroke-width="2.6" stroke-linecap="round"/>
<polyline points="154.0,33.0 151.9,33.2 149.8,33.8 147.9,34.9 146.2,36.2 144.9,37.9 143.8,39.8 143.2,41.9 143.0,44.0" fill="none" stroke="#5cf" stroke-width="2.6" stroke-linecap="round"/>
<polyline points="143.0,44.0 143.2,46.1 143.8,48.2 144.9,50.1 146.2,51.8 147.9,53.1 149.8,54.2 151.9,54.8 154.0,55.0" fill="none" stroke="#5cf" stroke-width="2.6" stroke-linecap="round"/>
<polyline points="132.0,77.0 134.8,77.0 137.5,77.0 140.3,77.0 143.0,77.0 145.8,77.0 148.5,77.0 151.3,77.0 154.0,77.0" fill="none" stroke="#ffa500" stroke-width="2.6" stroke-linecap="round"/>
<polyline points="154.0,99.0 151.3,99.0 148.5,99.0 145.8,99.0 143.0,99.0 140.3,99.0 137.5,99.0 134.8,99.0 132.0,99.0" fill="none" stroke="#ffa500" stroke-width="2.6" stroke-linecap="round"/>
<rect x="139" y="117" width="8" height="8" fill="#5f5"/>
<polyline points="143.0,132.0 143.0,134.8 143.0,137.5 143.0,140.3 143.0,143.0 143.0,145.8 143.0,148.5 143.0,151.3 143.0,154.0" fill="none" stroke="#ffa500" stroke-width="2.6" stroke-linecap="round"/>
<polyline points="143.0,176.0 143.0,173.3 143.0,170.5 143.0,167.8 143.0,165.0 143.0,162.3 143.0,159.5 143.0,156.8 143.0,154.0" fill="none" stroke="#ffa500" stroke-width="2.6" stroke-linecap="round"/>
<polyline points="143.0,176.0 143.0,178.8 143.0,181.5 143.0,184.3 143.0,187.0 143.0,189.8 143.0,192.5 143.0,195.3 143.0,198.0" fill="none" stroke="#5cf" stroke-width="2.6" stroke-linecap="round"/>
<polyline points="143.0,220.0 143.0,217.3 143.0,214.5 143.0,211.8 143.0,209.0 143.0,206.3 143.0,203.5 143.0,200.8 143.0,198.0" fill="none" stroke="#ffa500" stroke-width="2.6" stroke-linecap="round"/>
<polyline points="132.0,231.0 134.1,230.8 136.2,230.2 138.1,229.1 139.8,227.8 141.1,226.1 142.2,224.2 142.8,222.1 143.0,220.0" fill="none" stroke="#9bb" stroke-width="2.6" stroke-linecap="round"/>
<rect x="161" y="7" width="8" height="8" fill="#5f5"/>
<polyline points="154.0,33.0 156.8,33.0 159.5,33.0 162.3,33.0 165.0,33.0 167.8,33.0 170.5,33.0 173.3,33.0 176.0,33.0" fill="none" stroke="#5cf" stroke-width="2.6" stroke-linecap="round"/>
<polyline points="165.0,66.0 164.8,63.9 164.2,61.8 163.1,59.9 161.8,58.2 160.1,56.9 158.2,55.8 156.1,55.2 154.0,55.0" fill="none" stroke="#5cf" stroke-width="2.6" stroke-linecap="round"/>
<polyline points="154.0,77.0 156.1,76.8 158.2,76.2 160.1,75.1 161.8,73.8 163.1,72.1 164.2,70.2 164.8,68.1 165.0,66.0" fill="none" stroke="#5cf" stroke-width="2.6" stroke-linecap="round"/>
<rect x="161" y="95" width="8" height="8" fill="#5f5"/>
<polyline points="176.0,121.0 173.9,121.2 171.8,121.8 169.9,122.9 168.2,124.2 166.9,125.9 165.8,127.8 165.2,129.9 165.0,132.0" fill="none" stroke="#5cf" stroke-width="2.6" stroke-linecap="round"/>
<polyline points="165.0,132.0 165.0,134.8 165.0,137.5 165.0,140.3 165.0,143.0 165.0,145.8 165.0,148.5 165.0,151.3 165.0,154.0" fill="none" stroke="#5cf" stroke-width="2.6" stroke-linecap="round"/>
<polyline points="165.0,154.0 165.2,156.1 165.8,158.2 166.9,160.1 168.2,161.8 169.9,163.1 171.8,164.2 173.9,164.8 176.0,165.0" fill="none" stroke="#5cf" stroke-width="2.6" stroke-linecap="round"/>
<polyline points="165.0,198.0 164.8,195.9 164.2,193.8 163.1,191.9 161.8,190.2 160.1,188.9 158.2,187.8 156.1,187.2 154.0,187.0" fill="none" stroke="#9bb" stroke-width="2.6" stroke-linecap="round"/>
<polyline points="165.0,198.0 165.0,200.8 165.0,203.5 165.0,206.3 165.0,209.0 165.0,211.8 165.0,214.5 165.0,217.3 165.0,220.0" fill="none" stroke="#9bb" stroke-width="2.6" stroke-linecap="round"/>
<circle cx="165" cy="231" r="4" fill="#dca"/>
<line x1="165" y1="231" x2="165" y2="221.1" stroke="#dca" stroke-width="2.6"/>
<line x1="165" y1="231" x2="174.9" y2="231" stroke="#dca" stroke-width="2.6"/>
<line x1="165" y1="231" x2="165" y2="240.9" stroke="#dca" stroke-width="2.6"/>
<polyline points="165.0,242.0 165.2,244.1 165.8,246.2 166.9,248.1 168.2,249.8 169.9,251.1 171.8,252.2 173.9,252.8 176.0,253.0" fill="none" stroke="#9bb" stroke-width="2.6" stroke-linecap="round"/>
<polyline points="198.0,11.0 195.9,11.2 193.8,11.8 191.9,12.9 190.2,14.2 188.9,15.9 187.8,17.8 187.2,19.9 187.0,22.0" fill="none" stroke="#5cf" stroke-width="2.6" stroke-linecap="round"/>
<polyline points="176.0,33.0 178.1,32.8 180.2,32.2 182.1,31.1 183.8,29.8 185.1,28.1 186.2,26.2 186.8,24.1 187.0,22.0" fill="none" stroke="#5cf" stroke-width="2.6" stroke-linecap="round"/>
<polyline points="198.0,55.0 195.9,55.2 193.8,55.8 191.9,56.9 190.2,58.2 188.9,59.9 187.8,61.8 187.2,63.9 187.0,66.0" fill="none" stroke="#5cf" stroke-width="2.6" stroke-linecap="round"/>
<polyline points="187.0,66.0 187.0,68.8 187.0,71.5 187.0,74.3 187.0,77.0 187.0,79.8 187.0,82.5 187.0,85.3 187.0,88.0" fill="none" stroke="#5cf" stroke-width="2.6" stroke-linecap="round"/>
<polyline points="187.0,88.0 187.0,90.8 187.0,93.5 187.0,96.3 187.0,99.0 187.0,101.8 187.0,104.5 187.0,107.3 187.0,110.0" fill="none" stroke="#5cf" stroke-width="2.6" stroke-linecap="round"/>
<polyline points="176.0,121.0 178.1,120.8 180.2,120.2 182.1,119.1 183.8,117.8 185.1,116.1 186.2,114.2 186.8,112.1 187.0,110.0" fill="none" stroke="#5cf" stroke-width="2.6" stroke-linecap="round"/>
<polyline points="176.0,165.0 178.8,165.0 181.5,165.0 184.3,165.0 187.0,165.0 189.8,165.0 192.5,165.0 195.3,165.0 198.0,165.0" fill="none" stroke="#5cf" stroke-width="2.6" stroke-linecap="round"/>
<polyline points="198.0,187.0 195.9,187.2 193.8,187.8 191.9,188.9 190.2,190.2 188.9,191.9 187.8,193.8 187.2,195.9 187.0,198.0" fill="none" stroke="#5cf" stroke-width="2.6" stroke-linecap="round"/>
<polyline points="187.0,198.0 187.2,200.1 187.8,202.2 188.9,204.1 190.2,205.8 191.9,207.1 193.8,208.2 195.9,208.8 198.0,209.0" fill="none" stroke="#5cf" stroke-width="2.6" stroke-linecap="round"/>
<polyline points="187.0,242.0 186.8,239.9 186.2,237.8 185.1,235.9 183.8,234.2 182.1,232.9 180.2,231.8 178.1,231.2 176.0,231.0" fill="none" stroke="#9bb" stroke-width="2.6" stroke-linecap="round"/>
<polyline points="176.0,253.0 178.1,252.8 180.2,252.2 182.1,251.1 183.8,249.8 185.1,248.1 186.2,246.2 186.8,244.1 187.0,242.0" fill="none" stroke="#9bb" stroke-width="2.6" stroke-linecap="round"/>
<polyline points="209.0,22.0 208.8,19.9 208.2,17.8 207.1,15.9 205.8,14.2 204.1,12.9 202.2,11.8 200.1,11.2 198.0,11.0" fill="none" stroke="#5cf" stroke-width="2.6" stroke-linecap="round"/>
<polyline points="209.0,22.0 209.0,24.8 209.0,27.5 209.0,30.2 209.0,33.0 209.0,35.8 209.0,38.5 209.0,41.3 209.0,44.0" fill="none" stroke="#5cf" stroke-width="2.6" stroke-linecap="round"/>
<polyline points="198.0,55.0 200.1,54.8 202.2,54.2 204.1,53.1 205.8,51.8 207.1,50.1 208.2,48.2 208.8,46.1 209.0,44.0" fill="none" stroke="#5cf" stroke-width="2.6" stroke-linecap="round"/>
<polyline points="209.0,176.0 208.8,173.9 208.2,171.8 207.1,169.9 205.8,168.2 204.1,166.9 202.2,165.8 200.1,165.2 198.0,165.0" fill="none" stroke="#5cf" stroke-width="2.6" stroke-linecap="round"/>
<polyline points="198.0,187.0 200.1,186.8 202.2,186.2 204.1,185.1 205.8,183.8 207.1,182.1 208.2,180.2 208.8,178.1 209.0,176.0" fill="none" stroke="#5cf" stroke-width="2.6" stroke-linecap="round"/>
<polyline points="209.0,220.0 208.8,217.9 208.2,215.8 207.1,213.9 205.8,212.2 204.1,210.9 202.2,209.8 200.1,209.2 198.0,209.0" fill="none" stroke="#5cf" stroke-width="2.6" stroke-linecap="round"/>
<polyline points="209.0,220.0 209.0,222.8 209.0,225.5 209.0,228.3 209.0,231.0 209.0,233.8 209.0,236.5 209.0,239.3 209.0,242.0" fill="none" stroke="#5cf" stroke-width="2.6" stroke-linecap="round"/>
<polyline points="209.0,242.0 209.2,244.1 209.8,246.2 210.9,248.1 212.2,249.8 213.9,251.1 215.8,252.2 217.9,252.8 220.0,253.0" fill="none" stroke="#5cf" stroke-width="2.6" stroke-linecap="round"/>
<polyline points="242.0,143.0 239.9,143.2 237.8,143.8 235.9,144.9 234.2,146.2 232.9,147.9 231.8,149.8 231.2,151.9 231.0,154.0" fill="none" stroke="#5cf" stroke-width="2.6" stroke-linecap="round"/>
<polyline points="231.0,154.0 231.0,156.8 231.0,159.5 231.0,162.3 231.0,165.0 231.0,167.8 231.0,170.5 231.0,173.3 231.0,176.0" fill="none" stroke="#5cf" stroke-width="2.6" stroke-linecap="round"/>
<polyline points="231.0,176.0 231.0,178.8 231.0,181.5 231.0,184.3 231.0,187.0 231.0,189.8 231.0,192.5 231.0,195.3 231.0,198.0" fill="none" stroke="#5cf" stroke-width="2.6" stroke-linecap="round"/>
<polyline points="231.0,220.0 231.0,217.3 231.0,214.5 231.0,211.8 231.0,209.0 231.0,206.3 231.0,203.5 231.0,200.8 231.0,198.0" fill="none" stroke="#ffa500" stroke-width="2.6" stroke-linecap="round"/>
<polyline points="231.0,220.0 231.0,222.8 231.0,225.5 231.0,228.3 231.0,231.0 231.0,233.8 231.0,236.5 231.0,239.3 231.0,242.0" fill="none" stroke="#ffa500" stroke-width="2.6" stroke-linecap="round"/>
<polyline points="220.0,253.0 222.1,252.8 224.2,252.2 226.1,251.1 227.8,249.8 229.1,248.1 230.2,246.2 230.8,244.1 231.0,242.0" fill="none" stroke="#5cf" stroke-width="2.6" stroke-linecap="round"/>
<polyline points="242.0,143.0 244.8,143.0 247.5,143.0 250.3,143.0 253.0,143.0 255.8,143.0 258.5,143.0 261.3,143.0 264.0,143.0" fill="none" stroke="#5cf" stroke-width="2.6" stroke-linecap="round"/>
<rect x="249" y="161" width="8" height="8" fill="#5f5"/>
<polyline points="253.0,176.0 253.0,178.8 253.0,181.5 253.0,184.3 253.0,187.0 253.0,189.8 253.0,192.5 253.0,195.3 253.0,198.0" fill="none" stroke="#9bb" stroke-width="2.6" stroke-linecap="round"/>
<circle cx="253" cy="209" r="4" fill="#dca"/>
<line x1="253" y1="209" x2="253" y2="199.1" stroke="#dca" stroke-width="2.6"/>
<line x1="253" y1="209" x2="262.9" y2="209" stroke="#dca" stroke-width="2.6"/>
<line x1="253" y1="209" x2="253" y2="218.9" stroke="#dca" stroke-width="2.6"/>
<polyline points="253.0,220.0 253.2,222.1 253.8,224.2 254.9,226.1 256.2,227.8 257.9,229.1 259.8,230.2 261.9,230.8 264.0,231.0" fill="none" stroke="#9bb" stroke-width="2.6" stroke-linecap="round"/>
<polyline points="264.0,253.0 261.9,253.2 259.8,253.8 257.9,254.9 256.2,256.2 254.9,257.9 253.8,259.8 253.2,261.9 253.0,264.0" fill="none" stroke="#9bb" stroke-width="2.6" stroke-linecap="round"/>
<polyline points="253.0,264.0 253.2,266.1 253.8,268.2 254.9,270.1 256.2,271.8 257.9,273.1 259.8,274.2 261.9,274.8 264.0,275.0" fill="none" stroke="#9bb" stroke-width="2.6" stroke-linecap="round"/>
<polyline points="275.0,154.0 274.8,151.9 274.2,149.8 273.1,147.9 271.8,146.2 270.1,144.9 268.2,143.8 266.1,143.2 264.0,143.0" fill="none" stroke="#5cf" stroke-width="2.6" stroke-linecap="round"/>
<polyline points="275.0,176.0 275.0,173.3 275.0,170.5 275.0,167.8 275.0,165.0 275.0,162.3 275.0,159.5 275.0,156.8 275.0,154.0" fill="none" stroke="#ffa500" stroke-width="2.6" stroke-linecap="round"/>
<polyline points="275.0,176.0 275.0,178.8 275.0,181.5 275.0,184.3 275.0,187.0 275.0,189.8 275.0,192.5 275.0,195.3 275.0,198.0" fill="none" stroke="#9bb" stroke-width="2.6" stroke-linecap="round"/>
<polyline points="264.0,209.0 266.1,208.8 268.2,208.2 270.1,207.1 271.8,205.8 273.1,204.1 274.2,202.2 274.8,200.1 275.0,198.0" fill="none" stroke="#9bb" stroke-width="2.6" stroke-linecap="round"/>
<polyline points="275.0,242.0 274.8,239.9 274.2,237.8 273.1,235.9 271.8,234.2 270.1,232.9 268.2,231.8 266.1,231.2 264.0,231.0" fill="none" stroke="#9bb" stroke-width="2.6" stroke-linecap="round"/>
<polyline points="264.0,253.0 266.1,252.8 268.2,252.2 270.1,251.1 271.8,249.8 273.1,248.1 274.2,246.2 274.8,244.1 275.0,242.0" fill="none" stroke="#9bb" stroke-width="2.6" stroke-linecap="round"/>
<rect x="271" y="271" width="8" height="8" fill="#5f5"/>
<text x="4" y="299" font-family="ui-monospace,monospace" font-size="11" fill="#5e5">parallel=37  elev=✓  cov=120/123 (98%)</text>
</svg>