<svg xmlns="http://www.w3.org/2000/svg" viewBox="0 0 286 304" preserveAspectRatio="xMidYMid meet">
<rect x="0" y="0" width="286" height="286" fill="#1a1a22"/>
<line x1="0" y1="0" x2="286" y2="0" stroke="#262633"/>
<line x1="0" y1="0" x2="0" y2="286" stroke="#262633"/>
<line x1="0" y1="22" x2="286" y2="22" stroke="#262633"/>
<line x1="22" y1="0" x2="22" y2="286" stroke="#262633"/>
<line x1="0" y1="44" x2="286" y2="44" stroke="#262633"/>
<line x1="44" y1="0" x2="44" y2="286" stroke="#262633"/>
<line x1="0" y1="66" x2="286" y2="66" stroke="#262633"/>
<line x1="66" y1="0" x2="66" y2="286" stroke="#262633"/>
<line x1="0" y1="88" x2="286" y2="88" stroke="#262633"/>
<line x1="88" y1="0" x2="88" y2="286" stroke="#262633"/>
<line x1="0" y1="110" x2="286" y2="110" stroke="#262633"/>
<line x1="110" y1="0" x2="110" y2="286" stroke="#262633"/>
<line x1="0" y1="132" x2="286" y2="132" stroke="#262633"/>
<line x1="132" y1="0" x2="132" y2="286" stroke="#262633"/>
<line x1="0" y1="154" x2="286" y2="154" stroke="#262633"/>
<line x1="154" y1="0" x2="154" y2="286" stroke="#262633"/>
<line x1="0" y1="176" x2="286" y2="176" stroke="#262633"/>
<line x1="176" y1="0" x2="176" y2="286" stroke="#262633"/>
<line x1="0" y1="198" x2="286" y2="198" stroke="#262633"/>
<line x1="198" y1="0" x2="198" y2="286" stroke="#262633"/>
<line x1="0" y1="220" x2="286" y2="220" stroke="#262633"/>
<line x1="220" y1="0" x2="220" y2="286" stroke="#262633"/>
<line x1="0" y1="242" x2="286" y2="242" stroke="#262633"/>
<line x1="242" y1="0" x2="242" y2="286" stroke="#262633"/>
<line x1="0" y1="264" x2="286" y2="264" stroke="#262633"/>
<line x1="264" y1="0" x2="264" y2="286" stroke="#262633"/>
<line x1="0" y1="286" x2="286" y2="286" stroke="#262633"/>
<line x1="286" y1="0" x2="286" y2="286" stroke="#262633"/>
<rect x="7" y="7" width="8" height="8" fill="#5f5"/>
<polyline points="22.0,33.0 19.9,33.2 17.8,33.8 15.9,34.9 14.2,36.2 12.9,37.9 11.8,39.8 11.2,41.9 11.0,44.0" fill="none" stroke="#9bb" stroke-width="2.6" stroke-linecap="round"/>
<rect x="7" y="51" width="8" height="8" fill="#5f5"/>
<polyline points="22.0,77.0 19.9,77.2 17.8,77.8 15.9,78.9 14.2,80.2 12.9,81.9 11.8,83.8 11.2,85.9 11.0,88.0" fill="none" stroke="#9bb" stroke-width="2.6" stroke-linecap="round"/>
<rect x="7" y="95" width="8" height="8" fill="#5f5"/>
<rect x="7" y="117" width="8" height="8" fill="#5f5"/>
<rect x="7" y="139" width="8" height="8" fill="#5f5"/>
<rect x="7" y="161" width="8" height="8" fill="#5f5"/>
<rect x="7" y="183" width="8" height="8" fill="#5f5"/>
<polyline points="22.0,209.0 19.9,209.2 17.8,209.8 15.9,210.9 14.2,212.2 12.9,213.9 11.8,215.8 11.2,217.9 11.0,220.0" fill="none" stroke="#9bb" stroke-width="2.6" stroke-linecap="round"/>
<circle cx="11" cy="231" r="4" fill="#dca"/>
<line x1="11" y1="231" x2="11" y2="221.1" stroke="#dca" stroke-width="2.6"/>
<line x1="11" y1="231" x2="20.9" y2="231" stroke="#dca" stroke-width="2.6"/>
<line x1="11" y1="231" x2="11" y2="240.9" stroke="#dca" stroke-width="2.6"/>
<rect x="7" y="249" width="8" height="8" fill="#5f5"/>
<rect x="7" y="271" width="8" height="8" fill="#5f5"/>
<polyline points="33.0,22.0 32.8,19.9 32.2,17.8 31.1,15.9 29.8,14.2 28.1,12.9 26.2,11.8 24.1,11.2 22.0,11.0" fill="none" stroke="#9bb" stroke-width="2.6" stroke-linecap="round"/>
<circle cx="33" cy="33" r="4" fill="#dca"/>
<line x1="33" y1="33" x2="23.1" y2="33" stroke="#dca" stroke-width="2.6"/>
<line x1="33" y1="33" x2="33" y2="23.1" stroke="#dca" stroke-width="2.6"/>
<line x1="33" y1="33" x2="42.9" y2="33" stroke="#dca" stroke-width="2.6"/>
<rect x="29" y="51" width="8" height="8" fill="#5f5"/>
<polyline points="33.0,88.0 32.8,85.9 32.2,83.8 31.1,81.9 29.8,80.2 28.1,78.9 26.2,77.8 24.1,77.2 22.0,77.0" fill="none" stroke="#9bb" stroke-width="2.6" stroke-linecap="round"/>
<polyline points="33.0,88.0 33.2,90.1 33.8,92.2 34.9,94.1 36.2,95.8 37.9,97.1 39.8,98.2 41.9,98.8 44.0,99.0" fill="none" stroke="#9bb" stroke-width="2.6" stroke-linecap="round"/>
<polyline points="22.0,121.0 24.8,121.0 27.5,121.0 30.2,121.0 33.0,121.0 35.8,121.0 38.5,121.0 41.3,121.0 44.0,121.0" fill="none" stroke="#9bb" stroke-width="2.6" stroke-linecap="round"/>
<polyline points="22.0,143.0 24.8,143.0 27.5,143.0 30.2,143.0 33.0,143.0 35.8,143.0 38.5,143.0 41.3,143.0 44.0,143.0" fill="none" stroke="#9bb" stroke-width="2.6" stroke-linecap="round"/>
<circle cx="33" cy="165" r="4" fill="#dca"/>
<line x1="33" y1="165" x2="42.9" y2="165" stroke="#dca" stroke-width="2.6"/>
<line x1="33" y1="165" x2="33" y2="174.9" stroke="#dca" stroke-width="2.6"/>
<line x1="33" y1="165" x2="23.1" y2="165" stroke="#dca" stroke-width="2.6"/>
<circle cx="33" cy="187" r="4" fill="#dca"/>
<line x1="33" y1="187" x2="33" y2="177.1" stroke="#dca" stroke-width="2.6"/>
<line x1="33" y1="187" x2="42.9" y2="187" stroke="#dca" stroke-width="2.6"/>
<line x1="33" y1="187" x2="33" y2="196.9" stroke="#dca" stroke-width="2.6"/>
<line x1="33" y1="187" x2="23.1" y2="187" stroke="#dca" stroke-width="2.6"/>
<polyline points="22.0,209.0 24.1,208.8 26.2,208.2 28.1,207.1 29.8,205.8 31.1,204.1 32.2,202.2 32.8,200.1 33.0,198.0" fill="none" stroke="#9bb" stroke-width="2.6" stroke-linecap="round"/>
<polyline points="22.0,231.0 24.8,231.0 27.5,231.0 30.2,231.0 33.0,231.0 35.8,231.0 38.5,231.0 41.3,231.0 44.0,231.0" fill="none" stroke="#9bb" stroke-width="2.6" stroke-linecap="round"/>
<polyline points="44.0,253.0 41.9,253.2 39.8,253.8 37.9,254.9 36.2,256.2 34.9,257.9 33.8,259.8 33.2,261.9 33.0,264.0" fill="none" stroke="#9bb" stroke-width="2.6" stroke-linecap="round"/>
<circle cx="33" cy="275" r="4" fill="#dca"/>
<line x1="33" y1="275" x2="23.1" y2="275" stroke="#dca" stroke-width="2.6"/>
<line x1="33" y1="275" x2="33" y2="265.1" stroke="#dca" stroke-width="2.6"/>
<line x1="33" y1="275" x2="42.9" y2="275" stroke="#dca" stroke-width="2.6"/>
<polyline points="66.0,11.0 63.9,11.2 61.8,11.8 59.9,12.9 58.2,14.2 56.9,15.9 55.8,17.8 55.2,19.9 55.0,22.0" fill="none" stroke="#9bb" stroke-width="2.6" stroke-linecap="round"/>
<circle cx="55" cy="33" r="4" fill="#dca"/>
<line x1="55" y1="33" x2="55" y2="42.9" stroke="#dca" stroke-width="2.6"/>
<line x1="55" y1="33" x2="45.1" y2="33" stroke="#dca" stroke-width="2.6"/>
<line x1="55" y1="33" x2="55" y2="23.1" stroke="#dca" stroke-width="2.6"/>
<circle cx="55" cy="55" r="4" fill="#dca"/>
<line x1="55" y1="55" x2="55" y2="64.9" stroke="#dca" stroke-width="2.6"/>
<line x1="55" y1="55" x2="45.1" y2="55" stroke="#dca" stroke-width="2.6"/>
<line x1="55" y1="55" x2="55" y2="45.1" stroke="#dca" stroke-width="2.6"/>
<circle cx="55" cy="77" r="4" fill="#dca"/>
<line x1="55" y1="77" x2="55" y2="67.1" stroke="#dca" stroke-width="2.6"/>
<line x1="55" y1="77" x2="64.9" y2="77" stroke="#dca" stroke-width="2.6"/>
<line x1="55" y1="77" x2="55" y2="86.9" stroke="#dca" stroke-width="2.6"/>
<circle cx="55" cy="99" r="4" fill="#dca"/>
<line x1="55" y1="99" x2="55" y2="108.9" stroke="#dca" stroke-width="2.6"/>
<line x1="55" y1="99" x2="45.1" y2="99" stroke="#dca" stroke-width="2.6"/>
<line x1="55" y1="99" x2="55" y2="89.1" stroke="#dca" stroke-width="2.6"/>
<circle cx="55" cy="121" r="4" fill="#dca"/>
<line x1="55" y1="121" x2="55" y2="111.1" stroke="#dca" stroke-width="2.6"/>
<line x1="55" y1="121" x2="64.9" y2="121" stroke="#dca" stroke-width="2.6"/>
<line x1="55" y1="121" x2="55" y2="130.9" stroke="#dca" stroke-width="2.6"/>
<line x1="55" y1="121" x2="45.1" y2="121" stroke="#dca" stroke-width="2.6"/>
<circle cx="55" cy="143" r="4" fill="#dca"/>
<line x1="55" y1="143" x2="55" y2="152.9" stroke="#dca" stroke-width="2.6"/>
<line x1="55" y1="143" x2="45.1" y2="143" stroke="#dca" stroke-width="2.6"/>
<line x1="55" y1="143" x2="55" y2="133.1" stroke="#dca" stroke-width="2.6"/>
<circle cx="55" cy="165" r="4" fill="#dca"/>
<line x1="55" y1="165" x2="55" y2="155.1" stroke="#dca" stroke-width="2.6"/>
<line x1="55" y1="165" x2="64.9" y2="165" stroke="#dca" stroke-width="2.6"/>
<line x1="55" y1="165" x2="55" y2="174.9" stroke="#dca" stroke-width="2.6"/>
<line x1="55" y1="165" x2="45.1" y2="165" stroke="#dca" stroke-width="2.6"/>
<polyline points="44.0,187.0 46.1,186.8 48.2,186.2 50.1,185.1 51.8,183.8 53.1,182.1 54.2,180.2 54.8,178.1 55.0,176.0" fill="none" stroke="#9bb" stroke-width="2.6" stroke-linecap="round"/>
<rect x="51" y="205" width="8" height="8" fill="#5f5"/>
<polyline points="44.0,231.0 46.8,231.0 49.5,231.0 52.3,231.0 55.0,231.0 57.8,231.0 60.5,231.0 63.3,231.0 66.0,231.0" fill="none" stroke="#9bb" stroke-width="2.6" stroke-linecap="round"/>
<polyline points="44.0,253.0 46.8,253.0 49.5,253.0 52.3,253.0 55.0,253.0 57.8,253.0 60.5,253.0 63.3,253.0 66.0,253.0" fill="none" stroke="#9bb" stroke-width="2.6" stroke-linecap="round"/>
<polyline points="44.0,275.0 46.8,275.0 49.5,275.0 52.3,275.0 55.0,275.0 57.8,275.0 60.5,275.0 63.3,275.0 66.0,275.0" fill="none" stroke="#9bb" stroke-width="2.6" stroke-linecap="round"/>
<rect x="73" y="7" width="8" height="8" fill="#5f5"/>
<polyline points="88.0,33.0 85.9,33.2 83.8,33.8 81.9,34.9 80.2,36.2 78.9,37.9 77.8,39.8 77.2,41.9 77.0,44.0" fill="none" stroke="#9bb" stroke-width="2.6" stroke-linecap="round"/>
<polyline points="77.0,44.0 77.0,46.8 77.0,49.5 77.0,52.3 77.0,55.0 77.0,57.8 77.0,60.5 77.0,63.3 77.0,66.0" fill="none" stroke="#9bb" stroke-width="2.6" stroke-linecap="round"/>
<polyline points="66.0,77.0 68.1,76.8 70.2,76.2 72.1,75.1 73.8,73.8 75.1,72.1 76.2,70.2 76.8,68.1 77.0,66.0" fill="none" stroke="#9bb" stroke-width="2.6" stroke-linecap="round"/>
<rect x="73" y="95" width="8" height="8" fill="#5f5"/>
<polyline points="77.0,132.0 76.8,129.9 76.2,127.8 75.1,125.9 73.8,124.2 72.1,122.9 70.2,121.8 68.1,121.2 66.0,121.0" fill="none" stroke="#9bb" stroke-width="2.6" stroke-linecap="round"/>
<circle cx="77" cy="143" r="4" fill="#dca"/>
<line x1="77" y1="143" x2="77" y2="133.1" stroke="#dca" stroke-width="2.6"/>
<line x1="77" y1="143" x2="86.9" y2="143" stroke="#dca" stroke-width="2.6"/>
<line x1="77" y1="143" x2="77" y2="152.9" stroke="#dca" stroke-width="2.6"/>
<circle cx="77" cy="165" r="4" fill="#dca"/>
<line x1="77" y1="165" x2="77" y2="174.9" stroke="#dca" stroke-width="2.6"/>
<line x1="77" y1="165" x2="67.1" y2="165" stroke="#dca" stroke-width="2.6"/>
<line x1="77" y1="165" x2="77" y2="155.1" stroke="#dca" stroke-width="2.6"/>
<rect x="73" y="183" width="8" height="8" fill="#5f5"/>
<circle cx="77" cy="209" r="4" fill="#dca"/>
<line x1="77" y1="209" x2="86.9" y2="209" stroke="#dca" stroke-width="2.6"/>
<line x1="77" y1="209" x2="77" y2="218.9" stroke="#dca" stroke-width="2.6"/>
<line x1="77" y1="209" x2="67.1" y2="209" stroke="#dca" stroke-width="2.6"/>
<polyline points="66.0,231.0 68.1,230.8 70.2,230.2 72.1,229.1 73.8,227.8 75.1,226.1 76.2,224.2 76.8,222.1 77.0,220.0" fill="none" stroke="#9bb" stroke-width="2.6" stroke-linecap="round"/>
<polyline points="66.0,253.0 68.8,253.0 71.5,253.0 74.3,253.0 77.0,253.0 79.8,253.0 82.5,253.0 85.3,253.0 88.0,253.0" fill="none" stroke="#9bb" stroke-width="2.6" stroke-linecap="round"/>
<polyline points="66.0,275.0 68.8,275.0 71.5,275.0 74.3,275.0 77.0,275.0 79.8,275.0 82.5,275.0 85.3,275.0 88.0,275.0" fill="none" stroke="#9bb" stroke-width="2.6" stroke-linecap="round"/>
<polyline points="110.0,11.0 107.9,11.2 105.8,11.8 103.9,12.9 102.2,14.2 100.9,15.9 99.8,17.8 99.2,19.9 99.0,22.0" fill="none" stroke="#9bb" stroke-width="2.6" stroke-linecap="round"/>
<polyline points="88.0,33.0 90.1,32.8 92.2,32.2 94.1,31.1 95.8,29.8 97.1,28.1 98.2,26.2 98.8,24.1 99.0,22.0" fill="none" stroke="#9bb" stroke-width="2.6" stroke-linecap="round"/>
<rect x="95" y="51" width="8" height="8" fill="#5f5"/>
<polyline points="99.0,66.0 99.0,68.8 99.0,71.5 99.0,74.3 99.0,77.0 99.0,79.8 99.0,82.5 99.0,85.3 99.0,88.0" fill="none" stroke="#9bb" stroke-width="2.6" stroke-linecap="round"/>
<circle cx="99" cy="99" r="4" fill="#dca"/>
<line x1="99" y1="99" x2="99" y2="108.9" stroke="#dca" stroke-width="2.6"/>
<line x1="99" y1="99" x2="89.1" y2="99" stroke="#dca" stroke-width="2.6"/>
<line x1="99" y1="99" x2="99" y2="89.1" stroke="#dca" stroke-width="2.6"/>
<polyline points="99.0,110.0 99.2,112.1 99.8,114.2 100.9,116.1 102.2,117.8 103.9,119.1 105.8,120.2 107.9,120.8 110.0,121.0" fill="none" stroke="#9bb" stroke-width="2.6" stroke-linecap="round"/>
<circle cx="99" cy="143" r="4" fill="#dca"/>
<line x1="99" y1="143" x2="108.9" y2="143" stroke="#dca" stroke-width="2.6"/>
<line x1="99" y1="143" x2="99" y2="152.9" stroke="#dca" stroke-width="2.6"/>
<line x1="99" y1="143" x2="89.1" y2="143" stroke="#dca" stroke-width="2.6"/>
<rect x="95" y="161" width="8" height="8" fill="#5f5"/>
<polyline points="110.0,187.0 107.9,187.2 105.8,187.8 103.9,188.9 102.2,190.2 100.9,191.9 99.8,193.8 99.2,195.9 99.0,198.0" fill="none" stroke="#9bb" stroke-width="2.6" stroke-linecap="round"/>
<circle cx="99" cy="209" r="4" fill="#dca"/>
<line x1="99" y1="209" x2="99" y2="199.1" stroke="#dca" stroke-width="2.6"/>
<line x1="99" y1="209" x2="108.9" y2="209" stroke="#dca" stroke-width="2.6"/>
<line x1="99" y1="209" x2="99" y2="218.9" stroke="#dca" stroke-width="2.6"/>
<line x1="99" y1="209" x2="89.1" y2="209" stroke="#dca" stroke-width="2.6"/>
<rect x="95" y="227" width="8" height="8" fill="#5f5"/>
<polyline points="88.0,253.0 90.8,253.0 93.5,253.0 96.3,253.0 99.0,253.0 101.8,253.0 104.5,253.0 107.3,253.0 110.0,253.0" fill="none" stroke="#9bb" stroke-width="2.6" stroke-linecap="round"/>
<polyline points="88.0,275.0 90.8,275.0 93.5,275.0 96.3,275.0 99.0,275.0 101.8,275.0 104.5,275.0 107.3,275.0 110.0,275.0" fill="none" stroke="#9bb" stroke-width="2.6" stroke-linecap="round"/>
<rect x="117" y="7" width="8" height="8" fill="#5f5"/>
<rect x="117" y="29" width="8" height="8" fill="#5f5"/>
<rect x="117" y="51" width="8" height="8" fill="#5f5"/>
<polyline points="132.0,77.0 129.9,77.2 127.8,77.8 125.9,78.9 124.2,80.2 122.9,81.9 121.8,83.8 121.2,85.9 121.0,88.0" fill="none" stroke="#9bb" stroke-width="2.6" stroke-linecap="round"/>
<polyline points="121.0,88.0 121.2,90.1 121.8,92.2 122.9,94.1 124.2,95.8 125.9,97.1 127.8,98.2 129.9,98.8 132.0,99.0" fill="none" stroke="#9bb" stroke-width="2.6" stroke-linecap="round"/>
<polyline points="121.0,132.0 120.8,129.9 120.2,127.8 119.1,125.9 117.8,124.2 116.1,122.9 114.2,121.8 112.1,121.2 110.0,121.0" fill="none" stroke="#9bb" stroke-width="2.6" stroke-linecap="round"/>
<circle cx="121" cy="143" r="4" fill="#dca"/>
<line x1="121" y1="143" x2="121" y2="133.1" stroke="#dca" stroke-width="2.6"/>
<line x1="121" y1="143" x2="130.9" y2="143" stroke="#dca" stroke-width="2.6"/>
<line x1="121" y1="143" x2="121" y2="152.9" stroke="#dca" stroke-width="2.6"/>
<line x1="121" y1="143" x2="111.1" y2="143" stroke="#dca" stroke-width="2.6"/>
<rect x="117" y="161" width="8" height="8" fill="#5f5"/>
<polyline points="110.0,187.0 112.8,187.0 115.5,187.0 118.3,187.0 121.0,187.0 123.8,187.0 126.5,187.0 129.3,187.0 132.0,187.0" fill="none" stroke="#9bb" stroke-width="2.6" stroke-linecap="round"/>
<circle cx="121" cy="209" r="4" fill="#dca"/>
<line x1="121" y1="209" x2="130.9" y2="209" stroke="#dca" stroke-width="2.6"/>
<line x1="121" y1="209" x2="121" y2="218.9" stroke="#dca" stroke-width="2.6"/>
<line x1="121" y1="209" x2="111.1" y2="209" stroke="#dca" stroke-width="2.6"/>
<circle cx="121" cy="231" r="4" fill="#dca"/>
<line x1="121" y1="231" x2="121" y2="221.1" stroke="#dca" stroke-width="2.6"/>
<line x1="121" y1="231" x2="130.9" y2="231" stroke="#dca" stroke-width="2.6"/>
<line x1="121" y1="231" x2="121" y2="240.9" stroke="#dca" stroke-width="2.6"/>
<circle cx="121" cy="253" r="4" fill="#dca"/>
<line x1="121" y1="253" x2="121" y2="243.1" stroke="#dca" stroke-width="2.6"/>
<line x1="121" y1="253" x2="130.9" y2="253" stroke="#dca" stroke-width="2.6"/>
<line x1="121" y1="253" x2="121" y2="262.9" stroke="#dca" stroke-width="2.6"/>
<line x1="121" y1="253" x2="111.1" y2="253" stroke="#dca" stroke-width="2.6"/>
<polyline points="110.0,275.0 112.1,274.8 114.2,274.2 116.1,273.1 117.8,271.8 119.1,270.1 120.2,268.2 120.8,266.1 121.0,264.0" fill="none" stroke="#9bb" stroke-width="2.6" stroke-linecap="round"/>
<rect x="139" y="7" width="8" height="8" fill="#5f5"/>
<circle cx="143" cy="33" r="4" fill="#dca"/>
<line x1="143" y1="33" x2="143" y2="23.1" stroke="#dca" stroke-width="2.6"/>
<line x1="143" y1="33" x2="152.9" y2="33" stroke="#dca" stroke-width="2.6"/>
<line x1="143" y1="33" x2="143" y2="42.9" stroke="#dca" stroke-width="2.6"/>
<line x1="143" y1="33" x2="133.1" y2="33" stroke="#dca" stroke-width="2.6"/>
<circle cx="143" cy="55" r="4" fill="#dca"/>
<line x1="143" y1="55" x2="143" y2="64.9" stroke="#dca" stroke-width="2.6"/>
<line x1="143" y1="55" x2="133.1" y2="55" stroke="#dca" stroke-width="2.6"/>
<line x1="143" y1="55" x2="143" y2="45.1" stroke="#dca" stroke-width="2.6"/>
<circle cx="143" cy="77" r="4" fill="#dca"/>
<line x1="143" y1="77" x2="133.1" y2="77" stroke="#dca" stroke-width="2.6"/>
<line x1="143" y1="77" x2="143" y2="67.1" stroke="#dca" stroke-width="2.6"/>
<line x1="143" y1="77" x2="152.9" y2="77" stroke="#dca" stroke-width="2.6"/>
<polyline points="143.0,110.0 142.8,107.9 142.2,105.8 141.1,103.9 139.8,102.2 138.1,100.9 136.2,99.8 134.1,99.2 132.0,99.0" fill="none" stroke="#9bb" stroke-width="2.6" stroke-linecap="round"/>
<polyline points="143.0,110.0 143.2,112.1 143.8,114.2 144.9,116.1 146.2,117.8 147.9,119.1 149.8,120.2 151.9,120.8 154.0,121.0" fill="none" stroke="#9bb" stroke-width="2.6" stroke-linecap="round"/>
<circle cx="143" cy="143" r="4" fill="#dca"/>
<line x1="143" y1="143" x2="152.9" y2="143" stroke="#dca" stroke-width="2.6"/>
<line x1="143" y1="143" x2="143" y2="152.9" stroke="#dca" stroke-width="2.6"/>
<line x1="143" y1="143" x2="133.1" y2="143" stroke="#dca" stroke-width="2.6"/>
<polyline points="143.0,154.0 143.2,156.1 143.8,158.2 144.9,160.1 146.2,161.8 147.9,163.1 149.8,164.2 151.9,164.8 154.0,165.0" fill="none" stroke="#9bb" stroke-width="2.6" stroke-linecap="round"/>
<polyline points="132.0,187.0 134.8,187.0 137.5,187.0 140.3,187.0 143.0,187.0 145.8,187.0 148.5,187.0 151.3,187.0 154.0,187.0" fill="none" stroke="#9bb" stroke-width="2.6" stroke-linecap="round"/>
<rect x="139" y="205" width="8" height="8" fill="#5f5"/>
<rect x="139" y="227" width="8" height="8" fill="#5f5"/>
<circle cx="143" cy="253" r="4" fill="#dca"/>
<line x1="143" y1="253" x2="152.9" y2="253" stroke="#dca" stroke-width="2.6"/>
<line x1="143" y1="253" x2="143" y2="262.9" stroke="#dca" stroke-width="2.6"/>
<line x1="143" y1="253" x2="133.1" y2="253" stroke="#dca" stroke-width="2.6"/>
<rect x="139" y="271" width="8" height="8" fill="#5f5"/>
<rect x="161" y="7" width="8" height="8" fill="#5f5"/>
<polyline points="154.0,33.0 156.1,32.8 158.2,32.2 160.1,31.1 161.8,29.8 163.1,28.1 164.2,26.2 164.8,24.1 165.0,22.0" fill="none" stroke="#9bb" stroke-width="2.6" stroke-linecap="round"/>
<rect x="161" y="51" width="8" height="8" fill="#5f5"/>
<circle cx="165" cy="77" r="4" fill="#dca"/>
<line x1="165" y1="77" x2="165" y2="67.1" stroke="#dca" stroke-width="2.6"/>
<line x1="165" y1="77" x2="174.9" y2="77" stroke="#dca" stroke-width="2.6"/>
<line x1="165" y1="77" x2="165" y2="86.9" stroke="#dca" stroke-width="2.6"/>
<line x1="165" y1="77" x2="155.1" y2="77" stroke="#dca" stroke-width="2.6"/>
<polyline points="165.0,88.0 165.2,90.1 165.8,92.2 166.9,94.1 168.2,95.8 169.9,97.1 171.8,98.2 173.9,98.8 176.0,99.0" fill="none" stroke="#9bb" stroke-width="2.6" stroke-linecap="round"/>
<circle cx="165" cy="121" r="4" fill="#dca"/>
<line x1="165" y1="121" x2="174.9" y2="121" stroke="#dca" stroke-width="2.6"/>
<line x1="165" y1="121" x2="165" y2="130.9" stroke="#dca" stroke-width="2.6"/>
<line x1="165" y1="121" x2="155.1" y2="121" stroke="#dca" stroke-width="2.6"/>
<circle cx="165" cy="143" r="4" fill="#dca"/>
<line x1="165" y1="143" x2="155.1" y2="143" stroke="#dca" stroke-width="2.6"/>
<line x1="165" y1="143" x2="165" y2="133.1" stroke="#dca" stroke-width="2.6"/>
<line x1="165" y1="143" x2="174.9" y2="143" stroke="#dca" stroke-width="2.6"/>
<polyline points="165.0,176.0 164.8,173.9 164.2,171.8 163.1,169.9 161.8,168.2 160.1,166.9 158.2,165.8 156.1,165.2 154.0,165.0" fill="none" stroke="#9bb" stroke-width="2.6" stroke-linecap="round"/>
<circle cx="165" cy="187" r="4" fill="#dca"/>
<line x1="165" y1="187" x2="165" y2="177.1" stroke="#dca" stroke-width="2.6"/>
<line x1="165" y1="187" x2="174.9" y2="187" stroke="#dca" stroke-width="2.6"/>
<line x1="165" y1="187" x2="165" y2="196.9" stroke="#dca" stroke-width="2.6"/>
<line x1="165" y1="187" x2="155.1" y2="187" stroke="#dca" stroke-width="2.6"/>
<circle cx="165" cy="209" r="4" fill="#dca"/>
<line x1="165" y1="209" x2="165" y2="199.1" stroke="#dca" stroke-width="2.6"/>
<line x1="165" y1="209" x2="174.9" y2="209" stroke="#dca" stroke-width="2.6"/>
<line x1="165" y1="209" x2="165" y2="218.9" stroke="#dca" stroke-width="2.6"/>
<rect x="161" y="227" width="8" height="8" fill="#5f5"/>
<circle cx="165" cy="253" r="4" fill="#dca"/>
<line x1="165" y1="253" x2="174.9" y2="253" stroke="#dca" stroke-width="2.6"/>
<line x1="165" y1="253" x2="165" y2="262.9" stroke="#dca" stroke-width="2.6"/>
<line x1="165" y1="253" x2="155.1" y2="253" stroke="#dca" stroke-width="2.6"/>
<rect x="161" y="271" width="8" height="8" fill="#5f5"/>
<rect x="183" y="7" width="8" height="8" fill="#5f5"/>
<polyline points="187.0,22.0 187.0,24.8 187.0,27.5 187.0,30.2 187.0,33.0 187.0,35.8 187.0,38.5 187.0,41.3 187.0,44.0" fill="none" stroke="#9bb" stroke-width="2.6" stroke-linecap="round"/>
<polyline points="187.0,44.0 187.0,46.8 187.0,49.5 187.0,52.3 187.0,55.0 187.0,57.8 187.0,60.5 187.0,63.3 187.0,66.0" fill="none" stroke="#9bb" stroke-width="2.6" stroke-linecap="round"/>
<circle cx="187" cy="77" r="4" fill="#dca"/>
<line x1="187" y1="77" x2="187" y2="86.9" stroke="#dca" stroke-width="2.6"/>
<line x1="187" y1="77" x2="177.1" y2="77" stroke="#dca" stroke-width="2.6"/>
<line x1="187" y1="77" x2="187" y2="67.1" stroke="#dca" stroke-width="2.6"/>
<circle cx="187" cy="99" r="4" fill="#dca"/>
<line x1="187" y1="99" x2="187" y2="108.9" stroke="#dca" stroke-width="2.6"/>
<line x1="187" y1="99" x2="177.1" y2="99" stroke="#dca" stroke-width="2.6"/>
<line x1="187" y1="99" x2="187" y2="89.1" stroke="#dca" stroke-width="2.6"/>
<circle cx="187" cy="121" r="4" fill="#dca"/>
<line x1="187" y1="121" x2="177.1" y2="121" stroke="#dca" stroke-width="2.6"/>
<line x1="187" y1="121" x2="187" y2="111.1" stroke="#dca" stroke-width="2.6"/>
<line x1="187" y1="121" x2="196.9" y2="121" stroke="#dca" stroke-width="2.6"/>
<circle cx="187" cy="143" r="4" fill="#dca"/>
<line x1="187" y1="143" x2="196.9" y2="143" stroke="#dca" stroke-width="2.6"/>
<line x1="187" y1="143" x2="187" y2="152.9" stroke="#dca" stroke-width="2.6"/>
<line x1="187" y1="143" x2="177.1" y2="143" stroke="#dca" stroke-width="2.6"/>
<rect x="183" y="161" width="8" height="8" fill="#5f5"/>
<rect x="183" y="183" width="8" height="8" fill="#5f5"/>
<polyline points="187.0,220.0 186.8,217.9 186.2,215.8 185.1,213.9 183.8,212.2 182.1,210.9 180.2,209.8 178.1,209.2 176.0,209.0" fill="none" stroke="#9bb" stroke-width="2.6" stroke-linecap="round"/>
<rect x="183" y="227" width="8" height="8" fill="#5f5"/>
<rect x="183" y="249" width="8" height="8" fill="#5f5"/>
<rect x="183" y="271" width="8" height="8" fill="#5f5"/>
<polyline points="220.0,11.0 217.9,11.2 215.8,11.8 213.9,12.9 212.2,14.2 210.9,15.9 209.8,17.8 209.2,19.9 209.0,22.0" fill="none" stroke="#9bb" stroke-width="2.6" stroke-linecap="round"/>
<circle cx="209" cy="33" r="4" fill="#dca"/>
<line x1="209" y1="33" x2="209" y2="23.1" stroke="#dca" stroke-width="2.6"/>
<line x1="209" y1="33" x2="218.9" y2="33" stroke="#dca" stroke-width="2.6"/>
<line x1="209" y1="33" x2="209" y2="42.9" stroke="#dca" stroke-width="2.6"/>
<polyline points="209.0,44.0 209.0,46.8 209.0,49.5 209.0,52.3 209.0,55.0 209.0,57.8 209.0,60.5 209.0,63.3 209.0,66.0" fill="none" stroke="#9bb" stroke-width="2.6" stroke-linecap="round"/>
<circle cx="209" cy="77" r="4" fill="#dca"/>
<line x1="209" y1="77" x2="209" y2="67.1" stroke="#dca" stroke-width="2.6"/>
<line x1="209" y1="77" x2="218.9" y2="77" stroke="#dca" stroke-width="2.6"/>
<line x1="209" y1="77" x2="209" y2="86.9" stroke="#dca" stroke-width="2.6"/>
<polyline points="209.0,88.0 209.0,90.8 209.0,93.5 209.0,96.3 209.0,99.0 209.0,101.8 209.0,104.5 209.0,107.3 209.0,110.0" fill="none" stroke="#9bb" stroke-width="2.6" stroke-linecap="round"/>
<circle cx="209" cy="121" r="4" fill="#dca"/>
<line x1="209" y1="121" x2="199.1" y2="121" stroke="#dca" stroke-width="2.6"/>
<line x1="209" y1="121" x2="209" y2="111.1" stroke="#dca" stroke-width="2.6"/>
<line x1="209" y1="121" x2="218.9" y2="121" stroke="#dca" stroke-width="2.6"/>
<circle cx="209" cy="143" r="4" fill="#dca"/>
<line x1="209" y1="143" x2="218.9" y2="143" stroke="#dca" stroke-width="2.6"/>
<line x1="209" y1="143" x2="209" y2="152.9" stroke="#dca" stroke-width="2.6"/>
<line x1="209" y1="143" x2="199.1" y2="143" stroke="#dca" stroke-width="2.6"/>
<polyline points="209.0,154.0 209.0,156.8 209.0,159.5 209.0,162.3 209.0,165.0 209.0,167.8 209.0,170.5 209.0,173.3 209.0,176.0" fill="none" stroke="#9bb" stroke-width="2.6" stroke-linecap="round"/>
<circle cx="209" cy="187" r="4" fill="#dca"/>
<line x1="209" y1="187" x2="209" y2="177.1" stroke="#dca" stroke-width="2.6"/>
<line x1="209" y1="187" x2="218.9" y2="187" stroke="#dca" stroke-width="2.6"/>
<line x1="209" y1="187" x2="209" y2="196.9" stroke="#dca" stroke-width="2.6"/>
<circle cx="209" cy="209" r="4" fill="#dca"/>
<line x1="209" y1="209" x2="209" y2="199.1" stroke="#dca" stroke-width="2.6"/>
<line x1="209" y1="209" x2="218.9" y2="209" stroke="#dca" stroke-width="2.6"/>
<line x1="209" y1="209" x2="209" y2="218.9" stroke="#dca" stroke-width="2.6"/>
<polyline points="209.0,220.0 209.0,222.8 209.0,225.5 209.0,228.3 209.0,231.0 209.0,233.8 209.0,236.5 209.0,239.3 209.0,242.0" fill="none" stroke="#9bb" stroke-width="2.6" stroke-linecap="round"/>
<circle cx="209" cy="253" r="4" fill="#dca"/>
<line x1="209" y1="253" x2="209" y2="243.1" stroke="#dca" stroke-width="2.6"/>
<line x1="209" y1="253" x2="218.9" y2="253" stroke="#dca" stroke-width="2.6"/>
<line x1="209" y1="253" x2="209" y2="262.9" stroke="#dca" stroke-width="2.6"/>
<polyline points="198.0,275.0 200.1,274.8 202.2,274.2 204.1,273.1 205.8,271.8 207.1,270.1 208.2,268.2 208.8,266.1 209.0,264.0" fill="none" stroke="#9bb" stroke-width="2.6" stroke-linecap="round"/>
<polyline points="231.0,22.0 230.8,19.9 230.2,17.8 229.1,15.9 227.8,14.2 226.1,12.9 224.2,11.8 222.1,11.2 220.0,11.0" fill="none" stroke="#9bb" stroke-width="2.6" stroke-linecap="round"/>
<circle cx="231" cy="33" r="4" fill="#dca"/>
<line x1="231" y1="33" x2="231" y2="42.9" stroke="#dca" stroke-width="2.6"/>
<line x1="231" y1="33" x2="221.1" y2="33" stroke="#dca" stroke-width="2.6"/>
<line x1="231" y1="33" x2="231" y2="23.1" stroke="#dca" stroke-width="2.6"/>
<rect x="227" y="51" width="8" height="8" fill="#5f5"/>
<rect x="227" y="73" width="8" height="8" fill="#5f5"/>
<rect x="227" y="95" width="8" height="8" fill="#5f5"/>
<rect x="227" y="117" width="8" height="8" fill="#5f5"/>
<circle cx="231" cy="143" r="4" fill="#dca"/>
<line x1="231" y1="143" x2="240.9" y2="143" stroke="#dca" stroke-width="2.6"/>
<line x1="231" y1="143" x2="231" y2="152.9" stroke="#dca" stroke-width="2.6"/>
<line x1="231" y1="143" x2="221.1" y2="143" stroke="#dca" stroke-width="2.6"/>
<polyline points="231.0,154.0 231.2,156.1 231.8,158.2 232.9,160.1 234.2,161.8 235.9,163.1 237.8,164.2 239.9,164.8 242.0,165.0" fill="none" stroke="#9bb" stroke-width="2.6" stroke-linecap="round"/>
<polyline points="220.0,187.0 222.8,187.0 225.5,187.0 228.3,187.0 231.0,187.0 233.8,187.0 236.5,187.0 239.3,187.0 242.0,187.0" fill="none" stroke="#9bb" stroke-width="2.6" stroke-linecap="round"/>
<circle cx="231" cy="209" r="4" fill="#dca"/>
<line x1="231" y1="209" x2="240.9" y2="209" stroke="#dca" stroke-width="2.6"/>
<line x1="231" y1="209" x2="231" y2="218.9" stroke="#dca" stroke-width="2.6"/>
<line x1="231" y1="209" x2="221.1" y2="209" stroke="#dca" stroke-width="2.6"/>
<polyline points="231.0,220.0 231.2,222.1 231.8,224.2 232.9,226.1 234.2,227.8 235.9,229.1 237.8,230.2 239.9,230.8 242.0,231.0" fill="none" stroke="#9bb" stroke-width="2.6" stroke-linecap="round"/>
<polyline points="231.0,264.0 230.8,261.9 230.2,259.8 229.1,257.9 227.8,256.2 226.1,254.9 224.2,253.8 222.1,253.2 220.0,253.0" fill="none" stroke="#9bb" stroke-width="2.6" stroke-linecap="round"/>
<rect x="227" y="271" width="8" height="8" fill="#5f5"/>
<rect x="249" y="7" width="8" height="8" fill="#5f5"/>
<circle cx="253" cy="33" r="4" fill="#dca"/>
<line x1="253" y1="33" x2="253" y2="23.1" stroke="#dca" stroke-width="2.6"/>
<line x1="253" y1="33" x2="262.9" y2="33" stroke="#dca" stroke-width="2.6"/>
<line x1="253" y1="33" x2="253" y2="42.9" stroke="#dca" stroke-width="2.6"/>
<polyline points="253.0,44.0 253.0,46.8 253.0,49.5 253.0,52.3 253.0,55.0 253.0,57.8 253.0,60.5 253.0,63.3 253.0,66.0" fill="none" stroke="#9bb" stroke-width="2.6" stroke-linecap="round"/>
<circle cx="253" cy="77" r="4" fill="#dca"/>
<line x1="253" y1="77" x2="253" y2="67.1" stroke="#dca" stroke-width="2.6"/>
<line x1="253" y1="77" x2="262.9" y2="77" stroke="#dca" stroke-width="2.6"/>
<line x1="253" y1="77" x2="253" y2="86.9" stroke="#dca" stroke-width="2.6"/>
<circle cx="253" cy="99" r="4" fill="#dca"/>
<line x1="253" y1="99" x2="253" y2="108.9" stroke="#dca" stroke-width="2.6"/>
<line x1="253" y1="99" x2="243.1" y2="99" stroke="#dca" stroke-width="2.6"/>
<line x1="253" y1="99" x2="253" y2="89.1" stroke="#dca" stroke-width="2.6"/>
<circle cx="253" cy="121" r="4" fill="#dca"/>
<line x1="253" y1="121" x2="253" y2="111.1" stroke="#dca" stroke-width="2.6"/>
<line x1="253" y1="121" x2="262.9" y2="121" stroke="#dca" stroke-width="2.6"/>
<line x1="253" y1="121" x2="253" y2="130.9" stroke="#dca" stroke-width="2.6"/>
<polyline points="242.0,143.0 244.1,142.8 246.2,142.2 248.1,141.1 249.8,139.8 251.1,138.1 252.2,136.2 252.8,134.1 253.0,132.0" fill="none" stroke="#9bb" stroke-width="2.6" stroke-linecap="round"/>
<circle cx="253" cy="165" r="4" fill="#dca"/>
<line x1="253" y1="165" x2="262.9" y2="165" stroke="#dca" stroke-width="2.6"/>
<line x1="253" y1="165" x2="253" y2="174.9" stroke="#dca" stroke-width="2.6"/>
<line x1="253" y1="165" x2="243.1" y2="165" stroke="#dca" stroke-width="2.6"/>
<circle cx="253" cy="187" r="4" fill="#dca"/>
<line x1="253" y1="187" x2="243.1" y2="187" stroke="#dca" stroke-width="2.6"/>
<line x1="253" y1="187" x2="253" y2="177.1" stroke="#dca" stroke-width="2.6"/>
<line x1="253" y1="187" x2="262.9" y2="187" stroke="#dca" stroke-width="2.6"/>
<rect x="249" y="205" width="8" height="8" fill="#5f5"/>
<circle cx="253" cy="231" r="4" fill="#dca"/>
<line x1="253" y1="231" x2="262.9" y2="231" stroke="#dca" stroke-width="2.6"/>
<line x1="253" y1="231" x2="253" y2="240.9" stroke="#dca" stroke-width="2.6"/>
<line x1="253" y1="231" x2="243.1" y2="231" stroke="#dca" stroke-width="2.6"/>
<polyline points="253.0,242.0 253.0,244.8 253.0,247.5 253.0,250.3 253.0,253.0 253.0,255.8 253.0,258.5 253.0,261.3 253.0,264.0" fill="none" stroke="#9bb" stroke-width="2.6" stroke-linecap="round"/>
<rect x="249" y="271" width="8" height="8" fill="#5f5"/>
<rect x="271" y="7" width="8" height="8" fill="#5f5"/>
<polyline points="264.0,33.0 266.1,32.8 268.2,32.2 270.1,31.1 271.8,29.8 273.1,28.1 274.2,26.2 274.8,24.1 275.0,22.0" fill="none" stroke="#9bb" stroke-width="2.6" stroke-linecap="round"/>
<rect x="271" y="51" width="8" height="8" fill="#5f5"/>
<polyline points="264.0,77.0 266.1,76.8 268.2,76.2 270.1,75.1 271.8,73.8 273.1,72.1 274.2,70.2 274.8,68.1 275.0,66.0" fill="none" stroke="#9bb" stroke-width="2.6" stroke-linecap="round"/>
<rect x="271" y="95" width="8" height="8" fill="#5f5"/>
<circle cx="275" cy="121" r="4" fill="#dca"/>
<line x1="275" y1="121" x2="275" y2="130.9" stroke="#dca" stroke-width="2.6"/>
<line x1="275" y1="121" x2="265.1" y2="121" stroke="#dca" stroke-width="2.6"/>
<line x1="275" y1="121" x2="275" y2="111.1" stroke="#dca" stroke-width="2.6"/>
<polyline points="275.0,132.0 275.0,134.8 275.0,137.5 275.0,140.3 275.0,143.0 275.0,145.8 275.0,148.5 275.0,151.3 275.0,154.0" fill="none" stroke="#9bb" stroke-width="2.6" stroke-linecap="round"/>
<circle cx="275" cy="165" r="4" fill="#dca"/>
<line x1="275" y1="165" x2="275" y2="174.9" stroke="#dca" stroke-width="2.6"/>
<line x1="275" y1="165" x2="265.1" y2="165" stroke="#dca" stroke-width="2.6"/>
<line x1="275" y1="165" x2="275" y2="155.1" stroke="#dca" stroke-width="2.6"/>
<circle cx="275" cy="187" r="4" fill="#dca"/>
<line x1="275" y1="187" x2="275" y2="196.9" stroke="#dca" stroke-width="2.6"/>
<line x1="275" y1="187" x2="265.1" y2="187" stroke="#dca" stroke-width="2.6"/>
<line x1="275" y1="187" x2="275" y2="177.1" stroke="#dca" stroke-width="2.6"/>
<rect x="271" y="205" width="8" height="8" fill="#5f5"/>
<polyline points="275.0,242.0 274.8,239.9 274.2,237.8 273.1,235.9 271.8,234.2 270.1,232.9 268.2,231.8 266.1,231.2 264.0,231.0" fill="none" stroke="#9bb" stroke-width="2.6" stroke-linecap="round"/>
<polyline points="275.0,242.0 275.0,244.8 275.0,247.5 275.0,250.3 275.0,253.0 275.0,255.8 275.0,258.5 275.0,261.3 275.0,264.0" fill="none" stroke="#9bb" stroke-width="2.6" stroke-linecap="round"/>
<rect x="271" y="271" width="8" height="8" fill="#5f5"/>
<text x="4" y="299" font-family="ui-monospace,monospace" font-size="11" fill="#5e5">parallel=0  elev=✓  cov=169/169 (100%)</text>
</svg>