<svg xmlns="http://www.w3.org/2000/svg" viewBox="0 0 286 304" preserveAspectRatio="xMidYMid meet">
<rect x="0" y="0" width="286" height="286" fill="#1a1a22"/>
<line x1="0" y1="0" x2="286" y2="0" stroke="#262633"/>
<line x1="0" y1="0" x2="0" y2="286" stroke="#262633"/>
<line x1="0" y1="22" x2="286" y2="22" stroke="#262633"/>
<line x1="22" y1="0" x2="22" y2="286" stroke="#262633"/>
<line x1="0" y1="44" x2="286" y2="44" stroke="#262633"/>
<line x1="44" y1="0" x2="44" y2="286" stroke="#262633"/>
<line x1="0" y1="66" x2="286" y2="66" stroke="#262633"/>
<line x1="66" y1="0" x2="66" y2="286" stroke="#262633"/>
<line x1="0" y1="88" x2="286" y2="88" stroke="#262633"/>
<line x1="88" y1="0" x2="88" y2="286" stroke="#262633"/>
<line x1="0" y1="110" x2="286" y2="110" stroke="#262633"/>
<line x1="110" y1="0" x2="110" y2="286" stroke="#262633"/>
<line x1="0" y1="132" x2="286" y2="132" stroke="#262633"/>
<line x1="132" y1="0" x2="132" y2="286" stroke="#262633"/>
<line x1="0" y1="154" x2="286" y2="154" stroke="#262633"/>
<line x1="154" y1="0" x2="154" y2="286" stroke="#262633"/>
<line x1="0" y1="176" x2="286" y2="176" stroke="#262633"/>
<line x1="176" y1="0" x2="176" y2="286" stroke="#262633"/>
<line x1="0" y1="198" x2="286" y2="198" stroke="#262633"/>
<line x1="198" y1="0" x2="198" y2="286" stroke="#262633"/>
<line x1="0" y1="220" x2="286" y2="220" stroke="#262633"/>
<line x1="220" y1="0" x2="220" y2="286" stroke="#262633"/>
<line x1="0" y1="242" x2="286" y2="242" stroke="#262633"/>
<line x1="242" y1="0" x2="242" y2="286" stroke="#262633"/>
<line x1="0" y1="264" x2="286" y2="264" stroke="#262633"/>
<line x1="264" y1="0" x2="264" y2="286" stroke="#262633"/>
<line x1="0" y1="286" x2="286" y2="286" stroke="#262633"/>
<line x1="286" y1="0" x2="286" y2="286" stroke="#262633"/>
<rect x="7" y="7" width="8" height="8" fill="#5f5"/>
<polyline points="11.0,22.0 11.0,24.8 11.0,27.5 11.0,30.2 11.0,33.0 11.0,35.8 11.0,38.5 11.0,41.3 11.0,44.0" fill="none" stroke="#9bb" stroke-width="2.6" stroke-linecap="round"/>
<circle cx="11" cy="55" r="4" fill="#dca"/>
<line x1="11" y1="55" x2="11" y2="45.1" stroke="#dca" stroke-width="2.6"/>
<line x1="11" y1="55" x2="20.9" y2="55" stroke="#dca" stroke-width="2.6"/>
<line x1="11" y1="55" x2="11" y2="64.9" stroke="#dca" stroke-width="2.6"/>
<rect x="7" y="73" width="8" height="8" fill="#5f5"/>
<rect x="7" y="95" width="8" height="8" fill="#5f5"/>
<circle cx="11" cy="121" r="4" fill="#dca"/>
<line x1="11" y1="121" x2="11" y2="111.1" stroke="#dca" stroke-width="2.6"/>
<line x1="11" y1="121" x2="20.9" y2="121" stroke="#dca" stroke-width="2.6"/>
<line x1="11" y1="121" x2="11" y2="130.9" stroke="#dca" stroke-width="2.6"/>
<rect x="7" y="139" width="8" height="8" fill="#5f5"/>
<rect x="7" y="161" width="8" height="8" fill="#5f5"/>
<rect x="7" y="183" width="8" height="8" fill="#5f5"/>
<rect x="7" y="205" width="8" height="8" fill="#5f5"/>
<polyline points="22.0,231.0 19.9,231.2 17.8,231.8 15.9,232.9 14.2,234.2 12.9,235.9 11.8,237.8 11.2,239.9 11.0,242.0" fill="none" stroke="#9bb" stroke-width="2.6" stroke-linecap="round"/>
<polyline points="11.0,242.0 11.0,244.8 11.0,247.5 11.0,250.3 11.0,253.0 11.0,255.8 11.0,258.5 11.0,261.3 11.0,264.0" fill="none" stroke="#9bb" stroke-width="2.6" stroke-linecap="round"/>
<polyline points="11.0,264.0 11.2,266.1 11.8,268.2 12.9,270.1 14.2,271.8 15.9,273.1 17.8,274.2 19.9,274.8 22.0,275.0" fill="none" stroke="#9bb" stroke-width="2.6" stroke-linecap="round"/>
<polyline points="44.0,11.0 41.9,11.2 39.8,11.8 37.9,12.9 36.2,14.2 34.9,15.9 33.8,17.8 33.2,19.9 33.0,22.0" fill="none" stroke="#9bb" stroke-width="2.6" stroke-linecap="round"/>
<polyline points="33.0,22.0 33.0,24.8 33.0,27.5 33.0,30.2 33.0,33.0 33.0,35.8 33.0,38.5 33.0,41.3 33.0,44.0" fill="none" stroke="#9bb" stroke-width="2.6" stroke-linecap="round"/>
<circle cx="33" cy="55" r="4" fill="#dca"/>
<line x1="33" y1="55" x2="33" y2="64.9" stroke="#dca" stroke-width="2.6"/>
<line x1="33" y1="55" x2="23.1" y2="55" stroke="#dca" stroke-width="2.6"/>
<line x1="33" y1="55" x2="33" y2="45.1" stroke="#dca" stroke-width="2.6"/>
<polyline points="33.0,66.0 33.2,68.1 33.8,70.2 34.9,72.1 36.2,73.8 37.9,75.1 39.8,76.2 41.9,76.8 44.0,77.0" fill="none" stroke="#9bb" stroke-width="2.6" stroke-linecap="round"/>
<polyline points="44.0,99.0 41.9,99.2 39.8,99.8 37.9,100.9 36.2,102.2 34.9,103.9 33.8,105.8 33.2,107.9 33.0,110.0" fill="none" stroke="#9bb" stroke-width="2.6" stroke-linecap="round"/>
<circle cx="33" cy="121" r="4" fill="#dca"/>
<line x1="33" y1="121" x2="33" y2="111.1" stroke="#dca" stroke-width="2.6"/>
<line x1="33" y1="121" x2="42.9" y2="121" stroke="#dca" stroke-width="2.6"/>
<line x1="33" y1="121" x2="33" y2="130.9" stroke="#dca" stroke-width="2.6"/>
<line x1="33" y1="121" x2="23.1" y2="121" stroke="#dca" stroke-width="2.6"/>
<rect x="29" y="139" width="8" height="8" fill="#5f5"/>
<polyline points="22.0,165.0 24.8,165.0 27.5,165.0 30.2,165.0 33.0,165.0 35.8,165.0 38.5,165.0 41.3,165.0 44.0,165.0" fill="none" stroke="#9bb" stroke-width="2.6" stroke-linecap="round"/>
<polyline points="22.0,187.0 24.8,187.0 27.5,187.0 30.2,187.0 33.0,187.0 35.8,187.0 38.5,187.0 41.3,187.0 44.0,187.0" fill="none" stroke="#9bb" stroke-width="2.6" stroke-linecap="round"/>
<polyline points="22.0,209.0 24.8,209.0 27.5,209.0 30.2,209.0 33.0,209.0 35.8,209.0 38.5,209.0 41.3,209.0 44.0,209.0" fill="none" stroke="#9bb" stroke-width="2.6" stroke-linecap="round"/>
<polyline points="22.0,231.0 24.8,231.0 27.5,231.0 30.2,231.0 33.0,231.0 35.8,231.0 38.5,231.0 41.3,231.0 44.0,231.0" fill="none" stroke="#9bb" stroke-width="2.6" stroke-linecap="round"/>
<polyline points="44.0,253.0 41.9,253.2 39.8,253.8 37.9,254.9 36.2,256.2 34.9,257.9 33.8,259.8 33.2,261.9 33.0,264.0" fill="none" stroke="#9bb" stroke-width="2.6" stroke-linecap="round"/>
<polyline points="22.0,275.0 24.1,274.8 26.2,274.2 28.1,273.1 29.8,271.8 31.1,270.1 32.2,268.2 32.8,266.1 33.0,264.0" fill="none" stroke="#9bb" stroke-width="2.6" stroke-linecap="round"/>
<polyline points="55.0,22.0 54.8,19.9 54.2,17.8 53.1,15.9 51.8,14.2 50.1,12.9 48.2,11.8 46.1,11.2 44.0,11.0" fill="none" stroke="#9bb" stroke-width="2.6" stroke-linecap="round"/>
<polyline points="55.0,22.0 55.0,24.8 55.0,27.5 55.0,30.2 55.0,33.0 55.0,35.8 55.0,38.5 55.0,41.3 55.0,44.0" fill="none" stroke="#9bb" stroke-width="2.6" stroke-linecap="round"/>
<polyline points="55.0,44.0 55.0,46.8 55.0,49.5 55.0,52.3 55.0,55.0 55.0,57.8 55.0,60.5 55.0,63.3 55.0,66.0" fill="none" stroke="#9bb" stroke-width="2.6" stroke-linecap="round"/>
<circle cx="55" cy="77" r="4" fill="#dca"/>
<line x1="55" y1="77" x2="55" y2="86.9" stroke="#dca" stroke-width="2.6"/>
<line x1="55" y1="77" x2="45.1" y2="77" stroke="#dca" stroke-width="2.6"/>
<line x1="55" y1="77" x2="55" y2="67.1" stroke="#dca" stroke-width="2.6"/>
<circle cx="55" cy="99" r="4" fill="#dca"/>
<line x1="55" y1="99" x2="55" y2="89.1" stroke="#dca" stroke-width="2.6"/>
<line x1="55" y1="99" x2="64.9" y2="99" stroke="#dca" stroke-width="2.6"/>
<line x1="55" y1="99" x2="55" y2="108.9" stroke="#dca" stroke-width="2.6"/>
<line x1="55" y1="99" x2="45.1" y2="99" stroke="#dca" stroke-width="2.6"/>
<circle cx="55" cy="121" r="4" fill="#dca"/>
<line x1="55" y1="121" x2="45.1" y2="121" stroke="#dca" stroke-width="2.6"/>
<line x1="55" y1="121" x2="55" y2="111.1" stroke="#dca" stroke-width="2.6"/>
<line x1="55" y1="121" x2="64.9" y2="121" stroke="#dca" stroke-width="2.6"/>
<rect x="51" y="139" width="8" height="8" fill="#5f5"/>
<circle cx="55" cy="165" r="4" fill="#dca"/>
<line x1="55" y1="165" x2="45.1" y2="165" stroke="#dca" stroke-width="2.6"/>
<line x1="55" y1="165" x2="55" y2="155.1" stroke="#dca" stroke-width="2.6"/>
<line x1="55" y1="165" x2="64.9" y2="165" stroke="#dca" stroke-width="2.6"/>
<polyline points="55.0,198.0 54.8,195.9 54.2,193.8 53.1,191.9 51.8,190.2 50.1,188.9 48.2,187.8 46.1,187.2 44.0,187.0" fill="none" stroke="#9bb" stroke-width="2.6" stroke-linecap="round"/>
<circle cx="55" cy="209" r="4" fill="#dca"/>
<line x1="55" y1="209" x2="55" y2="199.1" stroke="#dca" stroke-width="2.6"/>
<line x1="55" y1="209" x2="64.9" y2="209" stroke="#dca" stroke-width="2.6"/>
<line x1="55" y1="209" x2="55" y2="218.9" stroke="#dca" stroke-width="2.6"/>
<line x1="55" y1="209" x2="45.1" y2="209" stroke="#dca" stroke-width="2.6"/>
<circle cx="55" cy="231" r="4" fill="#dca"/>
<line x1="55" y1="231" x2="55" y2="240.9" stroke="#dca" stroke-width="2.6"/>
<line x1="55" y1="231" x2="45.1" y2="231" stroke="#dca" stroke-width="2.6"/>
<line x1="55" y1="231" x2="55" y2="221.1" stroke="#dca" stroke-width="2.6"/>
<polyline points="44.0,253.0 46.1,252.8 48.2,252.2 50.1,251.1 51.8,249.8 53.1,248.1 54.2,246.2 54.8,244.1 55.0,242.0" fill="none" stroke="#9bb" stroke-width="2.6" stroke-linecap="round"/>
<rect x="51" y="271" width="8" height="8" fill="#5f5"/>
<rect x="73" y="7" width="8" height="8" fill="#5f5"/>
<rect x="73" y="29" width="8" height="8" fill="#5f5"/>
<polyline points="77.0,44.0 77.0,46.8 77.0,49.5 77.0,52.3 77.0,55.0 77.0,57.8 77.0,60.5 77.0,63.3 77.0,66.0" fill="none" stroke="#9bb" stroke-width="2.6" stroke-linecap="round"/>
<polyline points="77.0,66.0 77.0,68.8 77.0,71.5 77.0,74.3 77.0,77.0 77.0,79.8 77.0,82.5 77.0,85.3 77.0,88.0" fill="none" stroke="#9bb" stroke-width="2.6" stroke-linecap="round"/>
<circle cx="77" cy="99" r="4" fill="#dca"/>
<line x1="77" y1="99" x2="77" y2="108.9" stroke="#dca" stroke-width="2.6"/>
<line x1="77" y1="99" x2="67.1" y2="99" stroke="#dca" stroke-width="2.6"/>
<line x1="77" y1="99" x2="77" y2="89.1" stroke="#dca" stroke-width="2.6"/>
<circle cx="77" cy="121" r="4" fill="#dca"/>
<line x1="77" y1="121" x2="67.1" y2="121" stroke="#dca" stroke-width="2.6"/>
<line x1="77" y1="121" x2="77" y2="111.1" stroke="#dca" stroke-width="2.6"/>
<line x1="77" y1="121" x2="86.9" y2="121" stroke="#dca" stroke-width="2.6"/>
<rect x="73" y="139" width="8" height="8" fill="#5f5"/>
<circle cx="77" cy="165" r="4" fill="#dca"/>
<line x1="77" y1="165" x2="86.9" y2="165" stroke="#dca" stroke-width="2.6"/>
<line x1="77" y1="165" x2="77" y2="174.9" stroke="#dca" stroke-width="2.6"/>
<line x1="77" y1="165" x2="67.1" y2="165" stroke="#dca" stroke-width="2.6"/>
<polyline points="77.0,176.0 77.0,178.8 77.0,181.5 77.0,184.3 77.0,187.0 77.0,189.8 77.0,192.5 77.0,195.3 77.0,198.0" fill="none" stroke="#9bb" stroke-width="2.6" stroke-linecap="round"/>
<circle cx="77" cy="209" r="4" fill="#dca"/>
<line x1="77" y1="209" x2="67.1" y2="209" stroke="#dca" stroke-width="2.6"/>
<line x1="77" y1="209" x2="77" y2="199.1" stroke="#dca" stroke-width="2.6"/>
<line x1="77" y1="209" x2="86.9" y2="209" stroke="#dca" stroke-width="2.6"/>
<polyline points="88.0,231.0 85.9,231.2 83.8,231.8 81.9,232.9 80.2,234.2 78.9,235.9 77.8,237.8 77.2,239.9 77.0,242.0" fill="none" stroke="#9bb" stroke-width="2.6" stroke-linecap="round"/>
<rect x="73" y="249" width="8" height="8" fill="#5f5"/>
<polyline points="66.0,275.0 68.8,275.0 71.5,275.0 74.3,275.0 77.0,275.0 79.8,275.0 82.5,275.0 85.3,275.0 88.0,275.0" fill="none" stroke="#9bb" stroke-width="2.6" stroke-linecap="round"/>
<polyline points="99.0,22.0 98.8,19.9 98.2,17.8 97.1,15.9 95.8,14.2 94.1,12.9 92.2,11.8 90.1,11.2 88.0,11.0" fill="none" stroke="#9bb" stroke-width="2.6" stroke-linecap="round"/>
<circle cx="99" cy="33" r="4" fill="#dca"/>
<line x1="99" y1="33" x2="99" y2="23.1" stroke="#dca" stroke-width="2.6"/>
<line x1="99" y1="33" x2="108.9" y2="33" stroke="#dca" stroke-width="2.6"/>
<line x1="99" y1="33" x2="99" y2="42.9" stroke="#dca" stroke-width="2.6"/>
<polyline points="99.0,44.0 99.0,46.8 99.0,49.5 99.0,52.3 99.0,55.0 99.0,57.8 99.0,60.5 99.0,63.3 99.0,66.0" fill="none" stroke="#9bb" stroke-width="2.6" stroke-linecap="round"/>
<polyline points="99.0,66.0 99.0,68.8 99.0,71.5 99.0,74.3 99.0,77.0 99.0,79.8 99.0,82.5 99.0,85.3 99.0,88.0" fill="none" stroke="#9bb" stroke-width="2.6" stroke-linecap="round"/>
<circle cx="99" cy="99" r="4" fill="#dca"/>
<line x1="99" y1="99" x2="99" y2="89.1" stroke="#dca" stroke-width="2.6"/>
<line x1="99" y1="99" x2="108.9" y2="99" stroke="#dca" stroke-width="2.6"/>
<line x1="99" y1="99" x2="99" y2="108.9" stroke="#dca" stroke-width="2.6"/>
<circle cx="99" cy="121" r="4" fill="#dca"/>
<line x1="99" y1="121" x2="99" y2="130.9" stroke="#dca" stroke-width="2.6"/>
<line x1="99" y1="121" x2="89.1" y2="121" stroke="#dca" stroke-width="2.6"/>
<line x1="99" y1="121" x2="99" y2="111.1" stroke="#dca" stroke-width="2.6"/>
<circle cx="99" cy="143" r="4" fill="#dca"/>
<line x1="99" y1="143" x2="99" y2="152.9" stroke="#dca" stroke-width="2.6"/>
<line x1="99" y1="143" x2="89.1" y2="143" stroke="#dca" stroke-width="2.6"/>
<line x1="99" y1="143" x2="99" y2="133.1" stroke="#dca" stroke-width="2.6"/>
<circle cx="99" cy="165" r="4" fill="#dca"/>
<line x1="99" y1="165" x2="99" y2="155.1" stroke="#dca" stroke-width="2.6"/>
<line x1="99" y1="165" x2="108.9" y2="165" stroke="#dca" stroke-width="2.6"/>
<line x1="99" y1="165" x2="99" y2="174.9" stroke="#dca" stroke-width="2.6"/>
<line x1="99" y1="165" x2="89.1" y2="165" stroke="#dca" stroke-width="2.6"/>
<circle cx="99" cy="187" r="4" fill="#dca"/>
<line x1="99" y1="187" x2="99" y2="177.1" stroke="#dca" stroke-width="2.6"/>
<line x1="99" y1="187" x2="108.9" y2="187" stroke="#dca" stroke-width="2.6"/>
<line x1="99" y1="187" x2="99" y2="196.9" stroke="#dca" stroke-width="2.6"/>
<circle cx="99" cy="209" r="4" fill="#dca"/>
<line x1="99" y1="209" x2="99" y2="218.9" stroke="#dca" stroke-width="2.6"/>
<line x1="99" y1="209" x2="89.1" y2="209" stroke="#dca" stroke-width="2.6"/>
<line x1="99" y1="209" x2="99" y2="199.1" stroke="#dca" stroke-width="2.6"/>
<circle cx="99" cy="231" r="4" fill="#dca"/>
<line x1="99" y1="231" x2="99" y2="221.1" stroke="#dca" stroke-width="2.6"/>
<line x1="99" y1="231" x2="108.9" y2="231" stroke="#dca" stroke-width="2.6"/>
<line x1="99" y1="231" x2="99" y2="240.9" stroke="#dca" stroke-width="2.6"/>
<line x1="99" y1="231" x2="89.1" y2="231" stroke="#dca" stroke-width="2.6"/>
<polyline points="99.0,242.0 99.0,244.8 99.0,247.5 99.0,250.3 99.0,253.0 99.0,255.8 99.0,258.5 99.0,261.3 99.0,264.0" fill="none" stroke="#9bb" stroke-width="2.6" stroke-linecap="round"/>
<polyline points="88.0,275.0 90.1,274.8 92.2,274.2 94.1,273.1 95.8,271.8 97.1,270.1 98.2,268.2 98.8,266.1 99.0,264.0" fill="none" stroke="#9bb" stroke-width="2.6" stroke-linecap="round"/>
<rect x="117" y="7" width="8" height="8" fill="#5f5"/>
<circle cx="121" cy="33" r="4" fill="#dca"/>
<line x1="121" y1="33" x2="111.1" y2="33" stroke="#dca" stroke-width="2.6"/>
<line x1="121" y1="33" x2="121" y2="23.1" stroke="#dca" stroke-width="2.6"/>
<line x1="121" y1="33" x2="130.9" y2="33" stroke="#dca" stroke-width="2.6"/>
<polyline points="132.0,55.0 129.9,55.2 127.8,55.8 125.9,56.9 124.2,58.2 122.9,59.9 121.8,61.8 121.2,63.9 121.0,66.0" fill="none" stroke="#9bb" stroke-width="2.6" stroke-linecap="round"/>
<polyline points="121.0,66.0 121.0,68.8 121.0,71.5 121.0,74.3 121.0,77.0 121.0,79.8 121.0,82.5 121.0,85.3 121.0,88.0" fill="none" stroke="#9bb" stroke-width="2.6" stroke-linecap="round"/>
<circle cx="121" cy="99" r="4" fill="#dca"/>
<line x1="121" y1="99" x2="121" y2="89.1" stroke="#dca" stroke-width="2.6"/>
<line x1="121" y1="99" x2="130.9" y2="99" stroke="#dca" stroke-width="2.6"/>
<line x1="121" y1="99" x2="121" y2="108.9" stroke="#dca" stroke-width="2.6"/>
<line x1="121" y1="99" x2="111.1" y2="99" stroke="#dca" stroke-width="2.6"/>
<polyline points="121.0,110.0 121.0,112.8 121.0,115.5 121.0,118.3 121.0,121.0 121.0,123.8 121.0,126.5 121.0,129.3 121.0,132.0" fill="none" stroke="#9bb" stroke-width="2.6" stroke-linecap="round"/>
<circle cx="121" cy="143" r="4" fill="#dca"/>
<line x1="121" y1="143" x2="121" y2="133.1" stroke="#dca" stroke-width="2.6"/>
<line x1="121" y1="143" x2="130.9" y2="143" stroke="#dca" stroke-width="2.6"/>
<line x1="121" y1="143" x2="121" y2="152.9" stroke="#dca" stroke-width="2.6"/>
<polyline points="110.0,165.0 112.1,164.8 114.2,164.2 116.1,163.1 117.8,161.8 119.1,160.1 120.2,158.2 120.8,156.1 121.0,154.0" fill="none" stroke="#9bb" stroke-width="2.6" stroke-linecap="round"/>
<rect x="117" y="183" width="8" height="8" fill="#5f5"/>
<rect x="117" y="205" width="8" height="8" fill="#5f5"/>
<circle cx="121" cy="231" r="4" fill="#dca"/>
<line x1="121" y1="231" x2="121" y2="221.1" stroke="#dca" stroke-width="2.6"/>
<line x1="121" y1="231" x2="130.9" y2="231" stroke="#dca" stroke-width="2.6"/>
<line x1="121" y1="231" x2="121" y2="240.9" stroke="#dca" stroke-width="2.6"/>
<line x1="121" y1="231" x2="111.1" y2="231" stroke="#dca" stroke-width="2.6"/>
<circle cx="121" cy="253" r="4" fill="#dca"/>
<line x1="121" y1="253" x2="121" y2="243.1" stroke="#dca" stroke-width="2.6"/>
<line x1="121" y1="253" x2="130.9" y2="253" stroke="#dca" stroke-width="2.6"/>
<line x1="121" y1="253" x2="121" y2="262.9" stroke="#dca" stroke-width="2.6"/>
<rect x="117" y="271" width="8" height="8" fill="#5f5"/>
<polyline points="154.0,11.0 151.9,11.2 149.8,11.8 147.9,12.9 146.2,14.2 144.9,15.9 143.8,17.8 143.2,19.9 143.0,22.0" fill="none" stroke="#9bb" stroke-width="2.6" stroke-linecap="round"/>
<polyline points="132.0,33.0 134.1,32.8 136.2,32.2 138.1,31.1 139.8,29.8 141.1,28.1 142.2,26.2 142.8,24.1 143.0,22.0" fill="none" stroke="#9bb" stroke-width="2.6" stroke-linecap="round"/>
<rect x="139" y="51" width="8" height="8" fill="#5f5"/>
<rect x="139" y="73" width="8" height="8" fill="#5f5"/>
<rect x="139" y="95" width="8" height="8" fill="#5f5"/>
<rect x="139" y="117" width="8" height="8" fill="#5f5"/>
<circle cx="143" cy="143" r="4" fill="#dca"/>
<line x1="143" y1="143" x2="143" y2="133.1" stroke="#dca" stroke-width="2.6"/>
<line x1="143" y1="143" x2="152.9" y2="143" stroke="#dca" stroke-width="2.6"/>
<line x1="143" y1="143" x2="143" y2="152.9" stroke="#dca" stroke-width="2.6"/>
<line x1="143" y1="143" x2="133.1" y2="143" stroke="#dca" stroke-width="2.6"/>
<polyline points="143.0,154.0 143.0,156.8 143.0,159.5 143.0,162.3 143.0,165.0 143.0,167.8 143.0,170.5 143.0,173.3 143.0,176.0" fill="none" stroke="#9bb" stroke-width="2.6" stroke-linecap="round"/>
<polyline points="143.0,176.0 143.2,178.1 143.8,180.2 144.9,182.1 146.2,183.8 147.9,185.1 149.8,186.2 151.9,186.8 154.0,187.0" fill="none" stroke="#9bb" stroke-width="2.6" stroke-linecap="round"/>
<rect x="139" y="205" width="8" height="8" fill="#5f5"/>
<polyline points="132.0,231.0 134.1,230.8 136.2,230.2 138.1,229.1 139.8,227.8 141.1,226.1 142.2,224.2 142.8,222.1 143.0,220.0" fill="none" stroke="#9bb" stroke-width="2.6" stroke-linecap="round"/>
<polyline points="143.0,264.0 142.8,261.9 142.2,259.8 141.1,257.9 139.8,256.2 138.1,254.9 136.2,253.8 134.1,253.2 132.0,253.0" fill="none" stroke="#9bb" stroke-width="2.6" stroke-linecap="round"/>
<polyline points="143.0,264.0 143.2,266.1 143.8,268.2 144.9,270.1 146.2,271.8 147.9,273.1 149.8,274.2 151.9,274.8 154.0,275.0" fill="none" stroke="#9bb" stroke-width="2.6" stroke-linecap="round"/>
<rect x="161" y="7" width="8" height="8" fill="#5f5"/>
<polyline points="176.0,33.0 173.9,33.2 171.8,33.8 169.9,34.9 168.2,36.2 166.9,37.9 165.8,39.8 165.2,41.9 165.0,44.0" fill="none" stroke="#9bb" stroke-width="2.6" stroke-linecap="round"/>
<polyline points="165.0,44.0 165.2,46.1 165.8,48.2 166.9,50.1 168.2,51.8 169.9,53.1 171.8,54.2 173.9,54.8 176.0,55.0" fill="none" stroke="#9bb" stroke-width="2.6" stroke-linecap="round"/>
<circle cx="165" cy="77" r="4" fill="#dca"/>
<line x1="165" y1="77" x2="174.9" y2="77" stroke="#dca" stroke-width="2.6"/>
<line x1="165" y1="77" x2="165" y2="86.9" stroke="#dca" stroke-width="2.6"/>
<line x1="165" y1="77" x2="155.1" y2="77" stroke="#dca" stroke-width="2.6"/>
<polyline points="165.0,88.0 165.0,90.8 165.0,93.5 165.0,96.3 165.0,99.0 165.0,101.8 165.0,104.5 165.0,107.3 165.0,110.0" fill="none" stroke="#9bb" stroke-width="2.6" stroke-linecap="round"/>
<circle cx="165" cy="121" r="4" fill="#dca"/>
<line x1="165" y1="121" x2="165" y2="111.1" stroke="#dca" stroke-width="2.6"/>
<line x1="165" y1="121" x2="174.9" y2="121" stroke="#dca" stroke-width="2.6"/>
<line x1="165" y1="121" x2="165" y2="130.9" stroke="#dca" stroke-width="2.6"/>
<circle cx="165" cy="143" r="4" fill="#dca"/>
<line x1="165" y1="143" x2="165" y2="133.1" stroke="#dca" stroke-width="2.6"/>
<line x1="165" y1="143" x2="174.9" y2="143" stroke="#dca" stroke-width="2.6"/>
<line x1="165" y1="143" x2="165" y2="152.9" stroke="#dca" stroke-width="2.6"/>
<line x1="165" y1="143" x2="155.1" y2="143" stroke="#dca" stroke-width="2.6"/>
<rect x="161" y="161" width="8" height="8" fill="#5f5"/>
<polyline points="165.0,198.0 164.8,195.9 164.2,193.8 163.1,191.9 161.8,190.2 160.1,188.9 158.2,187.8 156.1,187.2 154.0,187.0" fill="none" stroke="#9bb" stroke-width="2.6" stroke-linecap="round"/>
<circle cx="165" cy="209" r="4" fill="#dca"/>
<line x1="165" y1="209" x2="165" y2="199.1" stroke="#dca" stroke-width="2.6"/>
<line x1="165" y1="209" x2="174.9" y2="209" stroke="#dca" stroke-width="2.6"/>
<line x1="165" y1="209" x2="165" y2="218.9" stroke="#dca" stroke-width="2.6"/>
<polyline points="165.0,220.0 165.0,222.8 165.0,225.5 165.0,228.3 165.0,231.0 165.0,233.8 165.0,236.5 165.0,239.3 165.0,242.0" fill="none" stroke="#9bb" stroke-width="2.6" stroke-linecap="round"/>
<rect x="161" y="249" width="8" height="8" fill="#5f5"/>
<rect x="161" y="271" width="8" height="8" fill="#5f5"/>
<rect x="183" y="7" width="8" height="8" fill="#5f5"/>
<rect x="183" y="29" width="8" height="8" fill="#5f5"/>
<polyline points="176.0,55.0 178.8,55.0 181.5,55.0 184.3,55.0 187.0,55.0 189.8,55.0 192.5,55.0 195.3,55.0 198.0,55.0" fill="none" stroke="#9bb" stroke-width="2.6" stroke-linecap="round"/>
<rect x="183" y="73" width="8" height="8" fill="#5f5"/>
<rect x="183" y="95" width="8" height="8" fill="#5f5"/>
<rect x="183" y="117" width="8" height="8" fill="#5f5"/>
<circle cx="187" cy="143" r="4" fill="#dca"/>
<line x1="187" y1="143" x2="196.9" y2="143" stroke="#dca" stroke-width="2.6"/>
<line x1="187" y1="143" x2="187" y2="152.9" stroke="#dca" stroke-width="2.6"/>
<line x1="187" y1="143" x2="177.1" y2="143" stroke="#dca" stroke-width="2.6"/>
<polyline points="187.0,154.0 187.0,156.8 187.0,159.5 187.0,162.3 187.0,165.0 187.0,167.8 187.0,170.5 187.0,173.3 187.0,176.0" fill="none" stroke="#9bb" stroke-width="2.6" stroke-linecap="round"/>
<rect x="183" y="183" width="8" height="8" fill="#5f5"/>
<polyline points="187.0,220.0 186.8,217.9 186.2,215.8 185.1,213.9 183.8,212.2 182.1,210.9 180.2,209.8 178.1,209.2 176.0,209.0" fill="none" stroke="#9bb" stroke-width="2.6" stroke-linecap="round"/>
<circle cx="187" cy="231" r="4" fill="#dca"/>
<line x1="187" y1="231" x2="187" y2="221.1" stroke="#dca" stroke-width="2.6"/>
<line x1="187" y1="231" x2="196.9" y2="231" stroke="#dca" stroke-width="2.6"/>
<line x1="187" y1="231" x2="187" y2="240.9" stroke="#dca" stroke-width="2.6"/>
<polyline points="187.0,242.0 187.0,244.8 187.0,247.5 187.0,250.3 187.0,253.0 187.0,255.8 187.0,258.5 187.0,261.3 187.0,264.0" fill="none" stroke="#9bb" stroke-width="2.6" stroke-linecap="round"/>
<rect x="183" y="271" width="8" height="8" fill="#5f5"/>
<polyline points="209.0,22.0 208.8,19.9 208.2,17.8 207.1,15.9 205.8,14.2 204.1,12.9 202.2,11.8 200.1,11.2 198.0,11.0" fill="none" stroke="#9bb" stroke-width="2.6" stroke-linecap="round"/>
<polyline points="209.0,22.0 209.0,24.8 209.0,27.5 209.0,30.2 209.0,33.0 209.0,35.8 209.0,38.5 209.0,41.3 209.0,44.0" fill="none" stroke="#9bb" stroke-width="2.6" stroke-linecap="round"/>
<circle cx="209" cy="55" r="4" fill="#dca"/>
<line x1="209" y1="55" x2="209" y2="64.9" stroke="#dca" stroke-width="2.6"/>
<line x1="209" y1="55" x2="199.1" y2="55" stroke="#dca" stroke-width="2.6"/>
<line x1="209" y1="55" x2="209" y2="45.1" stroke="#dca" stroke-width="2.6"/>
<polyline points="209.0,66.0 209.2,68.1 209.8,70.2 210.9,72.1 212.2,73.8 213.9,75.1 215.8,76.2 217.9,76.8 220.0,77.0" fill="none" stroke="#9bb" stroke-width="2.6" stroke-linecap="round"/>
<polyline points="209.0,110.0 208.8,107.9 208.2,105.8 207.1,103.9 205.8,102.2 204.1,100.9 202.2,99.8 200.1,99.2 198.0,99.0" fill="none" stroke="#9bb" stroke-width="2.6" stroke-linecap="round"/>
<circle cx="209" cy="121" r="4" fill="#dca"/>
<line x1="209" y1="121" x2="209" y2="111.1" stroke="#dca" stroke-width="2.6"/>
<line x1="209" y1="121" x2="218.9" y2="121" stroke="#dca" stroke-width="2.6"/>
<line x1="209" y1="121" x2="209" y2="130.9" stroke="#dca" stroke-width="2.6"/>
<circle cx="209" cy="143" r="4" fill="#dca"/>
<line x1="209" y1="143" x2="199.1" y2="143" stroke="#dca" stroke-width="2.6"/>
<line x1="209" y1="143" x2="209" y2="133.1" stroke="#dca" stroke-width="2.6"/>
<line x1="209" y1="143" x2="218.9" y2="143" stroke="#dca" stroke-width="2.6"/>
<polyline points="220.0,165.0 217.9,165.2 215.8,165.8 213.9,166.9 212.2,168.2 210.9,169.9 209.8,171.8 209.2,173.9 209.0,176.0" fill="none" stroke="#9bb" stroke-width="2.6" stroke-linecap="round"/>
<polyline points="209.0,176.0 209.0,178.8 209.0,181.5 209.0,184.3 209.0,187.0 209.0,189.8 209.0,192.5 209.0,195.3 209.0,198.0" fill="none" stroke="#9bb" stroke-width="2.6" stroke-linecap="round"/>
<polyline points="209.0,198.0 209.0,200.8 209.0,203.5 209.0,206.3 209.0,209.0 209.0,211.8 209.0,214.5 209.0,217.3 209.0,220.0" fill="none" stroke="#9bb" stroke-width="2.6" stroke-linecap="round"/>
<polyline points="198.0,231.0 200.1,230.8 202.2,230.2 204.1,229.1 205.8,227.8 207.1,226.1 208.2,224.2 208.8,222.1 209.0,220.0" fill="none" stroke="#9bb" stroke-width="2.6" stroke-linecap="round"/>
<polyline points="220.0,253.0 217.9,253.2 215.8,253.8 213.9,254.9 212.2,256.2 210.9,257.9 209.8,259.8 209.2,261.9 209.0,264.0" fill="none" stroke="#9bb" stroke-width="2.6" stroke-linecap="round"/>
<rect x="205" y="271" width="8" height="8" fill="#5f5"/>
<rect x="227" y="7" width="8" height="8" fill="#5f5"/>
<rect x="227" y="29" width="8" height="8" fill="#5f5"/>
<rect x="227" y="51" width="8" height="8" fill="#5f5"/>
<circle cx="231" cy="77" r="4" fill="#dca"/>
<line x1="231" y1="77" x2="240.9" y2="77" stroke="#dca" stroke-width="2.6"/>
<line x1="231" y1="77" x2="231" y2="86.9" stroke="#dca" stroke-width="2.6"/>
<line x1="231" y1="77" x2="221.1" y2="77" stroke="#dca" stroke-width="2.6"/>
<polyline points="231.0,88.0 231.0,90.8 231.0,93.5 231.0,96.3 231.0,99.0 231.0,101.8 231.0,104.5 231.0,107.3 231.0,110.0" fill="none" stroke="#9bb" stroke-width="2.6" stroke-linecap="round"/>
<circle cx="231" cy="121" r="4" fill="#dca"/>
<line x1="231" y1="121" x2="231" y2="111.1" stroke="#dca" stroke-width="2.6"/>
<line x1="231" y1="121" x2="240.9" y2="121" stroke="#dca" stroke-width="2.6"/>
<line x1="231" y1="121" x2="231" y2="130.9" stroke="#dca" stroke-width="2.6"/>
<line x1="231" y1="121" x2="221.1" y2="121" stroke="#dca" stroke-width="2.6"/>
<circle cx="231" cy="143" r="4" fill="#dca"/>
<line x1="231" y1="143" x2="231" y2="152.9" stroke="#dca" stroke-width="2.6"/>
<line x1="231" y1="143" x2="221.1" y2="143" stroke="#dca" stroke-width="2.6"/>
<line x1="231" y1="143" x2="231" y2="133.1" stroke="#dca" stroke-width="2.6"/>
<circle cx="231" cy="165" r="4" fill="#dca"/>
<line x1="231" y1="165" x2="231" y2="155.1" stroke="#dca" stroke-width="2.6"/>
<line x1="231" y1="165" x2="240.9" y2="165" stroke="#dca" stroke-width="2.6"/>
<line x1="231" y1="165" x2="231" y2="174.9" stroke="#dca" stroke-width="2.6"/>
<line x1="231" y1="165" x2="221.1" y2="165" stroke="#dca" stroke-width="2.6"/>
<circle cx="231" cy="187" r="4" fill="#dca"/>
<line x1="231" y1="187" x2="231" y2="177.1" stroke="#dca" stroke-width="2.6"/>
<line x1="231" y1="187" x2="240.9" y2="187" stroke="#dca" stroke-width="2.6"/>
<line x1="231" y1="187" x2="231" y2="196.9" stroke="#dca" stroke-width="2.6"/>
<polyline points="231.0,198.0 231.0,200.8 231.0,203.5 231.0,206.3 231.0,209.0 231.0,211.8 231.0,214.5 231.0,217.3 231.0,220.0" fill="none" stroke="#9bb" stroke-width="2.6" stroke-linecap="round"/>
<circle cx="231" cy="231" r="4" fill="#dca"/>
<line x1="231" y1="231" x2="231" y2="221.1" stroke="#dca" stroke-width="2.6"/>
<line x1="231" y1="231" x2="240.9" y2="231" stroke="#dca" stroke-width="2.6"/>
<line x1="231" y1="231" x2="231" y2="240.9" stroke="#dca" stroke-width="2.6"/>
<circle cx="231" cy="253" r="4" fill="#dca"/>
<line x1="231" y1="253" x2="231" y2="262.9" stroke="#dca" stroke-width="2.6"/>
<line x1="231" y1="253" x2="221.1" y2="253" stroke="#dca" stroke-width="2.6"/>
<line x1="231" y1="253" x2="231" y2="243.1" stroke="#dca" stroke-width="2.6"/>
<polyline points="231.0,264.0 231.2,266.1 231.8,268.2 232.9,270.1 234.2,271.8 235.9,273.1 237.8,274.2 239.9,274.8 242.0,275.0" fill="none" stroke="#9bb" stroke-width="2.6" stroke-linecap="round"/>
<polyline points="253.0,22.0 252.8,19.9 252.2,17.8 251.1,15.9 249.8,14.2 248.1,12.9 246.2,11.8 244.1,11.2 242.0,11.0" fill="none" stroke="#9bb" stroke-width="2.6" stroke-linecap="round"/>
<circle cx="253" cy="33" r="4" fill="#dca"/>
<line x1="253" y1="33" x2="243.1" y2="33" stroke="#dca" stroke-width="2.6"/>
<line x1="253" y1="33" x2="253" y2="23.1" stroke="#dca" stroke-width="2.6"/>
<line x1="253" y1="33" x2="262.9" y2="33" stroke="#dca" stroke-width="2.6"/>
<circle cx="253" cy="55" r="4" fill="#dca"/>
<line x1="253" y1="55" x2="262.9" y2="55" stroke="#dca" stroke-width="2.6"/>
<line x1="253" y1="55" x2="253" y2="64.9" stroke="#dca" stroke-width="2.6"/>
<line x1="253" y1="55" x2="243.1" y2="55" stroke="#dca" stroke-width="2.6"/>
<polyline points="242.0,77.0 244.1,76.8 246.2,76.2 248.1,75.1 249.8,73.8 251.1,72.1 252.2,70.2 252.8,68.1 253.0,66.0" fill="none" stroke="#9bb" stroke-width="2.6" stroke-linecap="round"/>
<polyline points="264.0,99.0 261.9,99.2 259.8,99.8 257.9,100.9 256.2,102.2 254.9,103.9 253.8,105.8 253.2,107.9 253.0,110.0" fill="none" stroke="#9bb" stroke-width="2.6" stroke-linecap="round"/>
<circle cx="253" cy="121" r="4" fill="#dca"/>
<line x1="253" y1="121" x2="243.1" y2="121" stroke="#dca" stroke-width="2.6"/>
<line x1="253" y1="121" x2="253" y2="111.1" stroke="#dca" stroke-width="2.6"/>
<line x1="253" y1="121" x2="262.9" y2="121" stroke="#dca" stroke-width="2.6"/>
<polyline points="264.0,143.0 261.9,143.2 259.8,143.8 257.9,144.9 256.2,146.2 254.9,147.9 253.8,149.8 253.2,151.9 253.0,154.0" fill="none" stroke="#9bb" stroke-width="2.6" stroke-linecap="round"/>
<circle cx="253" cy="165" r="4" fill="#dca"/>
<line x1="253" y1="165" x2="243.1" y2="165" stroke="#dca" stroke-width="2.6"/>
<line x1="253" y1="165" x2="253" y2="155.1" stroke="#dca" stroke-width="2.6"/>
<line x1="253" y1="165" x2="262.9" y2="165" stroke="#dca" stroke-width="2.6"/>
<circle cx="253" cy="187" r="4" fill="#dca"/>
<line x1="253" y1="187" x2="262.9" y2="187" stroke="#dca" stroke-width="2.6"/>
<line x1="253" y1="187" x2="253" y2="196.9" stroke="#dca" stroke-width="2.6"/>
<line x1="253" y1="187" x2="243.1" y2="187" stroke="#dca" stroke-width="2.6"/>
<rect x="249" y="205" width="8" height="8" fill="#5f5"/>
<circle cx="253" cy="231" r="4" fill="#dca"/>
<line x1="253" y1="231" x2="262.9" y2="231" stroke="#dca" stroke-width="2.6"/>
<line x1="253" y1="231" x2="253" y2="240.9" stroke="#dca" stroke-width="2.6"/>
<line x1="253" y1="231" x2="243.1" y2="231" stroke="#dca" stroke-width="2.6"/>
<rect x="249" y="249" width="8" height="8" fill="#5f5"/>
<rect x="249" y="271" width="8" height="8" fill="#5f5"/>
<rect x="271" y="7" width="8" height="8" fill="#5f5"/>
<circle cx="275" cy="33" r="4" fill="#dca"/>
<line x1="275" y1="33" x2="275" y2="42.9" stroke="#dca" stroke-width="2.6"/>
<line x1="275" y1="33" x2="265.1" y2="33" stroke="#dca" stroke-width="2.6"/>
<line x1="275" y1="33" x2="275" y2="23.1" stroke="#dca" stroke-width="2.6"/>
<circle cx="275" cy="55" r="4" fill="#dca"/>
<line x1="275" y1="55" x2="275" y2="64.9" stroke="#dca" stroke-width="2.6"/>
<line x1="275" y1="55" x2="265.1" y2="55" stroke="#dca" stroke-width="2.6"/>
<line x1="275" y1="55" x2="275" y2="45.1" stroke="#dca" stroke-width="2.6"/>
<rect x="271" y="73" width="8" height="8" fill="#5f5"/>
<rect x="271" y="95" width="8" height="8" fill="#5f5"/>
<rect x="271" y="117" width="8" height="8" fill="#5f5"/>
<rect x="271" y="139" width="8" height="8" fill="#5f5"/>
<rect x="271" y="161" width="8" height="8" fill="#5f5"/>
<polyline points="275.0,198.0 274.8,195.9 274.2,193.8 273.1,191.9 271.8,190.2 270.1,188.9 268.2,187.8 266.1,187.2 264.0,187.0" fill="none" stroke="#9bb" stroke-width="2.6" stroke-linecap="round"/>
<rect x="271" y="205" width="8" height="8" fill="#5f5"/>
<polyline points="275.0,242.0 274.8,239.9 274.2,237.8 273.1,235.9 271.8,234.2 270.1,232.9 268.2,231.8 266.1,231.2 264.0,231.0" fill="none" stroke="#9bb" stroke-width="2.6" stroke-linecap="round"/>
<polyline points="275.0,242.0 275.0,244.8 275.0,247.5 275.0,250.3 275.0,253.0 275.0,255.8 275.0,258.5 275.0,261.3 275.0,264.0" fill="none" stroke="#9bb" stroke-width="2.6" stroke-linecap="round"/>
<rect x="271" y="271" width="8" height="8" fill="#5f5"/>
<text x="4" y="299" font-family="ui-monospace,monospace" font-size="11" fill="#5e5">parallel=0  elev=✓  cov=169/169 (100%)</text>
</svg>