<svg xmlns="http://www.w3.org/2000/svg" viewBox="0 0 286 304" preserveAspectRatio="xMidYMid meet">
<rect x="0" y="0" width="286" height="286" fill="#1a1a22"/>
<line x1="0" y1="0" x2="286" y2="0" stroke="#262633"/>
<line x1="0" y1="0" x2="0" y2="286" stroke="#262633"/>
<line x1="0" y1="22" x2="286" y2="22" stroke="#262633"/>
<line x1="22" y1="0" x2="22" y2="286" stroke="#262633"/>
<line x1="0" y1="44" x2="286" y2="44" stroke="#262633"/>
<line x1="44" y1="0" x2="44" y2="286" stroke="#262633"/>
<line x1="0" y1="66" x2="286" y2="66" stroke="#262633"/>
<line x1="66" y1="0" x2="66" y2="286" stroke="#262633"/>
<line x1="0" y1="88" x2="286" y2="88" stroke="#262633"/>
<line x1="88" y1="0" x2="88" y2="286" stroke="#262633"/>
<line x1="0" y1="110" x2="286" y2="110" stroke="#262633"/>
<line x1="110" y1="0" x2="110" y2="286" stroke="#262633"/>
<line x1="0" y1="132" x2="286" y2="132" stroke="#262633"/>
<line x1="132" y1="0" x2="132" y2="286" stroke="#262633"/>
<line x1="0" y1="154" x2="286" y2="154" stroke="#262633"/>
<line x1="154" y1="0" x2="154" y2="286" stroke="#262633"/>
<line x1="0" y1="176" x2="286" y2="176" stroke="#262633"/>
<line x1="176" y1="0" x2="176" y2="286" stroke="#262633"/>
<line x1="0" y1="198" x2="286" y2="198" stroke="#262633"/>
<line x1="198" y1="0" x2="198" y2="286" stroke="#262633"/>
<line x1="0" y1="220" x2="286" y2="220" stroke="#262633"/>
<line x1="220" y1="0" x2="220" y2="286" stroke="#262633"/>
<line x1="0" y1="242" x2="286" y2="242" stroke="#262633"/>
<line x1="242" y1="0" x2="242" y2="286" stroke="#262633"/>
<line x1="0" y1="264" x2="286" y2="264" stroke="#262633"/>
<line x1="264" y1="0" x2="264" y2="286" stroke="#262633"/>
<line x1="0" y1="286" x2="286" y2="286" stroke="#262633"/>
<line x1="286" y1="0" x2="286" y2="286" stroke="#262633"/>
<rect x="66" y="220" width="22" height="22" fill="#a33" opacity="0.18"/>
<rect x="66" y="242" width="22" height="22" fill="#a33" opacity="0.18"/>
<rect x="88" y="154" width="22" height="22" fill="#a33" opacity="0.18"/>
<rect x="88" y="220" width="22" height="22" fill="#a33" opacity="0.18"/>
<rect x="88" y="242" width="22" height="22" fill="#a33" opacity="0.18"/>
<rect x="110" y="154" width="22" height="22" fill="#a33" opacity="0.18"/>
<rect x="110" y="176" width="22" height="22" fill="#a33" opacity="0.18"/>
<rect x="66" y="66" width="22" height="22" fill="#a33" opacity="0.18"/>
<rect x="88" y="44" width="22" height="22" fill="#a33" opacity="0.18"/>
<rect x="88" y="66" width="22" height="22" fill="#a33" opacity="0.18"/>
<rect x="176" y="132" width="22" height="22" fill="#a33" opacity="0.18"/>
<rect x="176" y="110" width="22" height="22" fill="#a33" opacity="0.18"/>
<rect x="198" y="110" width="22" height="22" fill="#a33" opacity="0.18"/>
<rect x="220" y="110" width="22" height="22" fill="#a33" opacity="0.18"/>
<rect x="242" y="110" width="22" height="22" fill="#a33" opacity="0.18"/>
<rect x="264" y="110" width="22" height="22" fill="#a33" opacity="0.18"/>
<rect x="264" y="132" width="22" height="22" fill="#a33" opacity="0.18"/>
<rect x="264" y="242" width="22" height="22" fill="#a33" opacity="0.18"/>
<rect x="220" y="264" width="22" height="22" fill="#a33" opacity="0.18"/>
<rect x="198" y="198" width="22" height="22" fill="#a33" opacity="0.18"/>
<rect x="198" y="176" width="22" height="22" fill="#a33" opacity="0.18"/>
<rect x="198" y="154" width="22" height="22" fill="#a33" opacity="0.18"/>
<rect x="198" y="132" width="22" height="22" fill="#a33" opacity="0.18"/>
<rect x="220" y="132" width="22" height="22" fill="#a33" opacity="0.18"/>
<rect x="154" y="44" width="22" height="22" fill="#a33" opacity="0.18"/>
<rect x="220" y="88" width="22" height="22" fill="#a33" opacity="0.18"/>
<rect x="242" y="88" width="22" height="22" fill="#a33" opacity="0.18"/>
<rect x="264" y="88" width="22" height="22" fill="#a33" opacity="0.18"/>
<rect x="264" y="66" width="22" height="22" fill="#a33" opacity="0.18"/>
<rect x="264" y="44" width="22" height="22" fill="#a33" opacity="0.18"/>
<rect x="242" y="44" width="22" height="22" fill="#a33" opacity="0.18"/>
<rect x="242" y="22" width="22" height="22" fill="#a33" opacity="0.18"/>
<rect x="242" y="0" width="22" height="22" fill="#a33" opacity="0.18"/>
<rect x="220" y="0" width="22" height="22" fill="#a33" opacity="0.18"/>
<polyline points="22.0,121.0 19.9,121.2 17.8,121.8 15.9,122.9 14.2,124.2 12.9,125.9 11.8,127.8 11.2,129.9 11.0,132.0" fill="none" stroke="#7088aa" stroke-width="1.8" stroke-linecap="round"/>
<polyline points="11.0,154.0 11.0,151.3 11.0,148.5 11.0,145.8 11.0,143.0 11.0,140.3 11.0,137.5 11.0,134.8 11.0,132.0" fill="none" stroke="#7088aa" stroke-width="1.8" stroke-linecap="round"/>
<polyline points="22.0,121.0 24.8,121.0 27.5,121.0 30.2,121.0 33.0,121.0 35.8,121.0 38.5,121.0 41.3,121.0 44.0,121.0" fill="none" stroke="#7088aa" stroke-width="1.8" stroke-linecap="round"/>
<polyline points="22.0,275.0 24.8,275.0 27.5,275.0 30.2,275.0 33.0,275.0 35.8,275.0 38.5,275.0 41.3,275.0 44.0,275.0" fill="none" stroke="#7088aa" stroke-width="1.8" stroke-linecap="round"/>
<polyline points="44.0,121.0 46.8,121.0 49.5,121.0 52.3,121.0 55.0,121.0 57.8,121.0 60.5,121.0 63.3,121.0 66.0,121.0" fill="none" stroke="#7088aa" stroke-width="1.8" stroke-linecap="round"/>
<polyline points="44.0,275.0 46.8,275.0 49.5,275.0 52.3,275.0 55.0,275.0 57.8,275.0 60.5,275.0 63.3,275.0 66.0,275.0" fill="none" stroke="#7088aa" stroke-width="1.8" stroke-linecap="round"/>
<polyline points="77.0,132.0 76.8,129.9 76.2,127.8 75.1,125.9 73.8,124.2 72.1,122.9 70.2,121.8 68.1,121.2 66.0,121.0" fill="none" stroke="#7088aa" stroke-width="1.8" stroke-linecap="round"/>
<polyline points="77.0,154.0 77.0,151.3 77.0,148.5 77.0,145.8 77.0,143.0 77.0,140.3 77.0,137.5 77.0,134.8 77.0,132.0" fill="none" stroke="#7088aa" stroke-width="1.8" stroke-linecap="round"/>
<polyline points="88.0,275.0 85.3,275.0 82.5,275.0 79.8,275.0 77.0,275.0 74.3,275.0 71.5,275.0 68.8,275.0 66.0,275.0" fill="none" stroke="#7088aa" stroke-width="1.8" stroke-linecap="round"/>
<polyline points="110.0,209.0 112.8,209.0 115.5,209.0 118.3,209.0 121.0,209.0 123.8,209.0 126.5,209.0 129.3,209.0 132.0,209.0" fill="none" stroke="#7088aa" stroke-width="1.8" stroke-linecap="round"/>
<polyline points="154.0,165.0 151.9,165.2 149.8,165.8 147.9,166.9 146.2,168.2 144.9,169.9 143.8,171.8 143.2,173.9 143.0,176.0" fill="none" stroke="#7088aa" stroke-width="1.8" stroke-linecap="round"/>
<polyline points="143.0,176.0 143.0,178.8 143.0,181.5 143.0,184.3 143.0,187.0 143.0,189.8 143.0,192.5 143.0,195.3 143.0,198.0" fill="none" stroke="#7088aa" stroke-width="1.8" stroke-linecap="round"/>
<polyline points="132.0,209.0 134.1,208.8 136.2,208.2 138.1,207.1 139.8,205.8 141.1,204.1 142.2,202.2 142.8,200.1 143.0,198.0" fill="none" stroke="#7088aa" stroke-width="1.8" stroke-linecap="round"/>
<polyline points="132.0,231.0 134.8,231.0 137.5,231.0 140.3,231.0 143.0,231.0 145.8,231.0 148.5,231.0 151.3,231.0 154.0,231.0" fill="none" stroke="#7088aa" stroke-width="1.8" stroke-linecap="round"/>
<polyline points="165.0,176.0 164.8,173.9 164.2,171.8 163.1,169.9 161.8,168.2 160.1,166.9 158.2,165.8 156.1,165.2 154.0,165.0" fill="none" stroke="#7088aa" stroke-width="1.8" stroke-linecap="round"/>
<polyline points="165.0,198.0 165.0,195.3 165.0,192.5 165.0,189.8 165.0,187.0 165.0,184.3 165.0,181.5 165.0,178.8 165.0,176.0" fill="none" stroke="#7088aa" stroke-width="1.8" stroke-linecap="round"/>
<polyline points="165.0,198.0 165.0,200.8 165.0,203.5 165.0,206.3 165.0,209.0 165.0,211.8 165.0,214.5 165.0,217.3 165.0,220.0" fill="none" stroke="#7088aa" stroke-width="1.8" stroke-linecap="round"/>
<polyline points="154.0,231.0 156.1,230.8 158.2,230.2 160.1,229.1 161.8,227.8 163.1,226.1 164.2,224.2 164.8,222.1 165.0,220.0" fill="none" stroke="#7088aa" stroke-width="1.8" stroke-linecap="round"/>
<polyline points="22.0,121.0 19.9,121.2 17.8,121.8 15.9,122.9 14.2,124.2 12.9,125.9 11.8,127.8 11.2,129.9 11.0,132.0" fill="none" stroke="#5cf" stroke-width="2.6" stroke-linecap="round"/>
<polyline points="11.0,154.0 11.0,151.3 11.0,148.5 11.0,145.8 11.0,143.0 11.0,140.3 11.0,137.5 11.0,134.8 11.0,132.0" fill="none" stroke="#ffa500" stroke-width="2.6" stroke-linecap="round"/>
<polyline points="11.0,154.0 11.0,156.8 11.0,159.5 11.0,162.3 11.0,165.0 11.0,167.8 11.0,170.5 11.0,173.3 11.0,176.0" fill="none" stroke="#9bb" stroke-width="2.6" stroke-linecap="round"/>
<polyline points="11.0,176.0 11.0,178.8 11.0,181.5 11.0,184.3 11.0,187.0 11.0,189.8 11.0,192.5 11.0,195.3 11.0,198.0" fill="none" stroke="#9bb" stroke-width="2.6" stroke-linecap="round"/>
<polyline points="11.0,198.0 11.2,200.1 11.8,202.2 12.9,204.1 14.2,205.8 15.9,207.1 17.8,208.2 19.9,208.8 22.0,209.0" fill="none" stroke="#9bb" stroke-width="2.6" stroke-linecap="round"/>
<polyline points="22.0,231.0 19.9,231.2 17.8,231.8 15.9,232.9 14.2,234.2 12.9,235.9 11.8,237.8 11.2,239.9 11.0,242.0" fill="none" stroke="#9bb" stroke-width="2.6" stroke-linecap="round"/>
<polyline points="11.0,242.0 11.0,244.8 11.0,247.5 11.0,250.3 11.0,253.0 11.0,255.8 11.0,258.5 11.0,261.3 11.0,264.0" fill="none" stroke="#9bb" stroke-width="2.6" stroke-linecap="round"/>
<polyline points="11.0,264.0 11.2,266.1 11.8,268.2 12.9,270.1 14.2,271.8 15.9,273.1 17.8,274.2 19.9,274.8 22.0,275.0" fill="none" stroke="#9bb" stroke-width="2.6" stroke-linecap="round"/>
<polyline points="22.0,121.0 24.8,121.0 27.5,121.0 30.2,121.0 33.0,121.0 35.8,121.0 38.5,121.0 41.3,121.0 44.0,121.0" fill="none" stroke="#5cf" stroke-width="2.6" stroke-linecap="round"/>
<polyline points="44.0,143.0 41.9,143.2 39.8,143.8 37.9,144.9 36.2,146.2 34.9,147.9 33.8,149.8 33.2,151.9 33.0,154.0" fill="none" stroke="#9bb" stroke-width="2.6" stroke-linecap="round"/>
<polyline points="33.0,154.0 33.0,156.8 33.0,159.5 33.0,162.3 33.0,165.0 33.0,167.8 33.0,170.5 33.0,173.3 33.0,176.0" fill="none" stroke="#9bb" stroke-width="2.6" stroke-linecap="round"/>
<polyline points="33.0,176.0 33.2,178.1 33.8,180.2 34.9,182.1 36.2,183.8 37.9,185.1 39.8,186.2 41.9,186.8 44.0,187.0" fill="none" stroke="#9bb" stroke-width="2.6" stroke-linecap="round"/>
<polyline points="33.0,220.0 32.8,217.9 32.2,215.8 31.1,213.9 29.8,212.2 28.1,210.9 26.2,209.8 24.1,209.2 22.0,209.0" fill="none" stroke="#9bb" stroke-width="2.6" stroke-linecap="round"/>
<circle cx="33" cy="231" r="4" fill="#dca"/>
<line x1="33" y1="231" x2="33" y2="221.1" stroke="#dca" stroke-width="2.6"/>
<line x1="33" y1="231" x2="42.9" y2="231" stroke="#dca" stroke-width="2.6"/>
<line x1="33" y1="231" x2="33" y2="240.9" stroke="#dca" stroke-width="2.6"/>
<line x1="33" y1="231" x2="23.1" y2="231" stroke="#dca" stroke-width="2.6"/>
<polyline points="33.0,242.0 33.2,244.1 33.8,246.2 34.9,248.1 36.2,249.8 37.9,251.1 39.8,252.2 41.9,252.8 44.0,253.0" fill="none" stroke="#9bb" stroke-width="2.6" stroke-linecap="round"/>
<polyline points="22.0,275.0 24.8,275.0 27.5,275.0 30.2,275.0 33.0,275.0 35.8,275.0 38.5,275.0 41.3,275.0 44.0,275.0" fill="none" stroke="#ffa500" stroke-width="2.6" stroke-linecap="round"/>
<polyline points="44.0,121.0 46.8,121.0 49.5,121.0 52.3,121.0 55.0,121.0 57.8,121.0 60.5,121.0 63.3,121.0 66.0,121.0" fill="none" stroke="#5cf" stroke-width="2.6" stroke-linecap="round"/>
<polyline points="55.0,154.0 54.8,151.9 54.2,149.8 53.1,147.9 51.8,146.2 50.1,144.9 48.2,143.8 46.1,143.2 44.0,143.0" fill="none" stroke="#9bb" stroke-width="2.6" stroke-linecap="round"/>
<polyline points="55.0,154.0 55.2,156.1 55.8,158.2 56.9,160.1 58.2,161.8 59.9,163.1 61.8,164.2 63.9,164.8 66.0,165.0" fill="none" stroke="#9bb" stroke-width="2.6" stroke-linecap="round"/>
<polyline points="55.0,198.0 54.8,195.9 54.2,193.8 53.1,191.9 51.8,190.2 50.1,188.9 48.2,187.8 46.1,187.2 44.0,187.0" fill="none" stroke="#9bb" stroke-width="2.6" stroke-linecap="round"/>
<polyline points="55.0,198.0 55.0,200.8 55.0,203.5 55.0,206.3 55.0,209.0 55.0,211.8 55.0,214.5 55.0,217.3 55.0,220.0" fill="none" stroke="#9bb" stroke-width="2.6" stroke-linecap="round"/>
<polyline points="44.0,231.0 46.1,230.8 48.2,230.2 50.1,229.1 51.8,227.8 53.1,226.1 54.2,224.2 54.8,222.1 55.0,220.0" fill="none" stroke="#9bb" stroke-width="2.6" stroke-linecap="round"/>
<polyline points="44.0,253.0 46.8,253.0 49.5,253.0 52.3,253.0 55.0,253.0 57.8,253.0 60.5,253.0 63.3,253.0 66.0,253.0" fill="none" stroke="#9bb" stroke-width="2.6" stroke-linecap="round"/>
<polyline points="44.0,275.0 46.8,275.0 49.5,275.0 52.3,275.0 55.0,275.0 57.8,275.0 60.5,275.0 63.3,275.0 66.0,275.0" fill="none" stroke="#5cf" stroke-width="2.6" stroke-linecap="round"/>
<polyline points="77.0,132.0 76.8,129.9 76.2,127.8 75.1,125.9 73.8,124.2 72.1,122.9 70.2,121.8 68.1,121.2 66.0,121.0" fill="none" stroke="#5cf" stroke-width="2.6" stroke-linecap="round"/>
<polyline points="77.0,154.0 77.0,151.3 77.0,148.5 77.0,145.8 77.0,143.0 77.0,140.3 77.0,137.5 77.0,134.8 77.0,132.0" fill="none" stroke="#ffa500" stroke-width="2.6" stroke-linecap="round"/>
<circle cx="77" cy="165" r="4" fill="#dca"/>
<line x1="77" y1="165" x2="77" y2="174.9" stroke="#dca" stroke-width="2.6"/>
<line x1="77" y1="165" x2="67.1" y2="165" stroke="#dca" stroke-width="2.6"/>
<line x1="77" y1="165" x2="77" y2="155.1" stroke="#dca" stroke-width="2.6"/>
<polyline points="77.0,176.0 77.0,178.8 77.0,181.5 77.0,184.3 77.0,187.0 77.0,189.8 77.0,192.5 77.0,195.3 77.0,198.0" fill="none" stroke="#9bb" stroke-width="2.6" stroke-linecap="round"/>
<polyline points="77.0,198.0 77.2,200.1 77.8,202.2 78.9,204.1 80.2,205.8 81.9,207.1 83.8,208.2 85.9,208.8 88.0,209.0" fill="none" stroke="#9bb" stroke-width="2.6" stroke-linecap="round"/>
<polyline points="88.0,231.0 85.9,231.2 83.8,231.8 81.9,232.9 80.2,234.2 78.9,235.9 77.8,237.8 77.2,239.9 77.0,242.0" fill="none" stroke="#9bb" stroke-width="2.6" stroke-linecap="round"/>
<polyline points="66.0,253.0 68.1,252.8 70.2,252.2 72.1,251.1 73.8,249.8 75.1,248.1 76.2,246.2 76.8,244.1 77.0,242.0" fill="none" stroke="#9bb" stroke-width="2.6" stroke-linecap="round"/>
<polyline points="88.0,275.0 85.3,275.0 82.5,275.0 79.8,275.0 77.0,275.0 74.3,275.0 71.5,275.0 68.8,275.0 66.0,275.0" fill="none" stroke="#ffa500" stroke-width="2.6" stroke-linecap="round"/>
<polyline points="110.0,165.0 107.9,165.2 105.8,165.8 103.9,166.9 102.2,168.2 100.9,169.9 99.8,171.8 99.2,173.9 99.0,176.0" fill="none" stroke="#9bb" stroke-width="2.6" stroke-linecap="round"/>
<polyline points="99.0,176.0 99.0,178.8 99.0,181.5 99.0,184.3 99.0,187.0 99.0,189.8 99.0,192.5 99.0,195.3 99.0,198.0" fill="none" stroke="#9bb" stroke-width="2.6" stroke-linecap="round"/>
<circle cx="99" cy="209" r="4" fill="#dca"/>
<line x1="99" y1="209" x2="89.1" y2="209" stroke="#dca" stroke-width="2.6"/>
<line x1="99" y1="209" x2="99" y2="199.1" stroke="#dca" stroke-width="2.6"/>
<line x1="99" y1="209" x2="108.9" y2="209" stroke="#dca" stroke-width="2.6"/>
<polyline points="99.0,242.0 98.8,239.9 98.2,237.8 97.1,235.9 95.8,234.2 94.1,232.9 92.2,231.8 90.1,231.2 88.0,231.0" fill="none" stroke="#9bb" stroke-width="2.6" stroke-linecap="round"/>
<rect x="95" y="249" width="8" height="8" fill="#5f5"/>
<polyline points="88.0,275.0 90.8,275.0 93.5,275.0 96.3,275.0 99.0,275.0 101.8,275.0 104.5,275.0 107.3,275.0 110.0,275.0" fill="none" stroke="#9bb" stroke-width="2.6" stroke-linecap="round"/>
<polyline points="121.0,176.0 120.8,173.9 120.2,171.8 119.1,169.9 117.8,168.2 116.1,166.9 114.2,165.8 112.1,165.2 110.0,165.0" fill="none" stroke="#9bb" stroke-width="2.6" stroke-linecap="round"/>
<rect x="117" y="183" width="8" height="8" fill="#5f5"/>
<polyline points="110.0,209.0 112.8,209.0 115.5,209.0 118.3,209.0 121.0,209.0 123.8,209.0 126.5,209.0 129.3,209.0 132.0,209.0" fill="none" stroke="#ffa500" stroke-width="2.6" stroke-linecap="round"/>
<polyline points="132.0,231.0 129.9,231.2 127.8,231.8 125.9,232.9 124.2,234.2 122.9,235.9 121.8,237.8 121.2,239.9 121.0,242.0" fill="none" stroke="#9bb" stroke-width="2.6" stroke-linecap="round"/>
<polyline points="121.0,242.0 121.2,244.1 121.8,246.2 122.9,248.1 124.2,249.8 125.9,251.1 127.8,252.2 129.9,252.8 132.0,253.0" fill="none" stroke="#9bb" stroke-width="2.6" stroke-linecap="round"/>
<polyline points="110.0,275.0 112.8,275.0 115.5,275.0 118.3,275.0 121.0,275.0 123.8,275.0 126.5,275.0 129.3,275.0 132.0,275.0" fill="none" stroke="#9bb" stroke-width="2.6" stroke-linecap="round"/>
<polyline points="154.0,165.0 151.9,165.2 149.8,165.8 147.9,166.9 146.2,168.2 144.9,169.9 143.8,171.8 143.2,173.9 143.0,176.0" fill="none" stroke="#5cf" stroke-width="2.6" stroke-linecap="round"/>
<polyline points="143.0,176.0 143.0,178.8 143.0,181.5 143.0,184.3 143.0,187.0 143.0,189.8 143.0,192.5 143.0,195.3 143.0,198.0" fill="none" stroke="#5cf" stroke-width="2.6" stroke-linecap="round"/>
<polyline points="132.0,209.0 134.1,208.8 136.2,208.2 138.1,207.1 139.8,205.8 141.1,204.1 142.2,202.2 142.8,200.1 143.0,198.0" fill="none" stroke="#5cf" stroke-width="2.6" stroke-linecap="round"/>
<polyline points="132.0,231.0 134.8,231.0 137.5,231.0 140.3,231.0 143.0,231.0 145.8,231.0 148.5,231.0 151.3,231.0 154.0,231.0" fill="none" stroke="#ffa500" stroke-width="2.6" stroke-linecap="round"/>
<polyline points="143.0,264.0 142.8,261.9 142.2,259.8 141.1,257.9 139.8,256.2 138.1,254.9 136.2,253.8 134.1,253.2 132.0,253.0" fill="none" stroke="#9bb" stroke-width="2.6" stroke-linecap="round"/>
<polyline points="132.0,275.0 134.1,274.8 136.2,274.2 138.1,273.1 139.8,271.8 141.1,270.1 142.2,268.2 142.8,266.1 143.0,264.0" fill="none" stroke="#9bb" stroke-width="2.6" stroke-linecap="round"/>
<polyline points="165.0,176.0 164.8,173.9 164.2,171.8 163.1,169.9 161.8,168.2 160.1,166.9 158.2,165.8 156.1,165.2 154.0,165.0" fill="none" stroke="#5cf" stroke-width="2.6" stroke-linecap="round"/>
<polyline points="165.0,198.0 165.0,195.3 165.0,192.5 165.0,189.8 165.0,187.0 165.0,184.3 165.0,181.5 165.0,178.8 165.0,176.0" fill="none" stroke="#ffa500" stroke-width="2.6" stroke-linecap="round"/>
<polyline points="165.0,198.0 165.0,200.8 165.0,203.5 165.0,206.3 165.0,209.0 165.0,211.8 165.0,214.5 165.0,217.3 165.0,220.0" fill="none" stroke="#ffa500" stroke-width="2.6" stroke-linecap="round"/>
<polyline points="154.0,231.0 156.1,230.8 158.2,230.2 160.1,229.1 161.8,227.8 163.1,226.1 164.2,224.2 164.8,222.1 165.0,220.0" fill="none" stroke="#5cf" stroke-width="2.6" stroke-linecap="round"/>
<polyline points="66.0,77.0 68.8,77.0 71.5,77.0 74.3,77.0 77.0,77.0 79.8,77.0 82.5,77.0 85.3,77.0 88.0,77.0" fill="none" stroke="#5cf" stroke-width="2.6" stroke-linecap="round"/>
<polyline points="99.0,66.0 99.0,63.3 99.0,60.5 99.0,57.8 99.0,55.0 99.0,52.3 99.0,49.5 99.0,46.8 99.0,44.0" fill="none" stroke="#ffa500" stroke-width="2.6" stroke-linecap="round"/>
<polyline points="88.0,77.0 90.8,77.0 93.5,77.0 96.3,77.0 99.0,77.0 101.8,77.0 104.5,77.0 107.3,77.0 110.0,77.0" fill="none" stroke="#5cf" stroke-width="2.6" stroke-linecap="round"/>
<polyline points="176.0,143.0 178.1,142.8 180.2,142.2 182.1,141.1 183.8,139.8 185.1,138.1 186.2,136.2 186.8,134.1 187.0,132.0" fill="none" stroke="#5cf" stroke-width="2.6" stroke-linecap="round"/>
<polyline points="198.0,121.0 195.9,121.2 193.8,121.8 191.9,122.9 190.2,124.2 188.9,125.9 187.8,127.8 187.2,129.9 187.0,132.0" fill="none" stroke="#5cf" stroke-width="2.6" stroke-linecap="round"/>
<polyline points="198.0,121.0 200.8,121.0 203.5,121.0 206.3,121.0 209.0,121.0 211.8,121.0 214.5,121.0 217.3,121.0 220.0,121.0" fill="none" stroke="#5cf" stroke-width="2.6" stroke-linecap="round"/>
<polyline points="220.0,121.0 222.8,121.0 225.5,121.0 228.3,121.0 231.0,121.0 233.8,121.0 236.5,121.0 239.3,121.0 242.0,121.0" fill="none" stroke="#5cf" stroke-width="2.6" stroke-linecap="round"/>
<polyline points="242.0,121.0 244.8,121.0 247.5,121.0 250.3,121.0 253.0,121.0 255.8,121.0 258.5,121.0 261.3,121.0 264.0,121.0" fill="none" stroke="#5cf" stroke-width="2.6" stroke-linecap="round"/>
<polyline points="275.0,132.0 274.8,129.9 274.2,127.8 273.1,125.9 271.8,124.2 270.1,122.9 268.2,121.8 266.1,121.2 264.0,121.0" fill="none" stroke="#5cf" stroke-width="2.6" stroke-linecap="round"/>
<polyline points="275.0,154.0 275.0,151.3 275.0,148.5 275.0,145.8 275.0,143.0 275.0,140.3 275.0,137.5 275.0,134.8 275.0,132.0" fill="none" stroke="#ffa500" stroke-width="2.6" stroke-linecap="round"/>
<polyline points="275.0,264.0 275.0,261.3 275.0,258.5 275.0,255.8 275.0,253.0 275.0,250.3 275.0,247.5 275.0,244.8 275.0,242.0" fill="none" stroke="#ffa500" stroke-width="2.6" stroke-linecap="round"/>
<polyline points="220.0,275.0 222.8,275.0 225.5,275.0 228.3,275.0 231.0,275.0 233.8,275.0 236.5,275.0 239.3,275.0 242.0,275.0" fill="none" stroke="#ffa500" stroke-width="2.6" stroke-linecap="round"/>
<polyline points="209.0,198.0 209.0,200.8 209.0,203.5 209.0,206.3 209.0,209.0 209.0,211.8 209.0,214.5 209.0,217.3 209.0,220.0" fill="none" stroke="#5cf" stroke-width="2.6" stroke-linecap="round"/>
<polyline points="209.0,176.0 209.0,178.8 209.0,181.5 209.0,184.3 209.0,187.0 209.0,189.8 209.0,192.5 209.0,195.3 209.0,198.0" fill="none" stroke="#5cf" stroke-width="2.6" stroke-linecap="round"/>
<polyline points="209.0,154.0 209.0,156.8 209.0,159.5 209.0,162.3 209.0,165.0 209.0,167.8 209.0,170.5 209.0,173.3 209.0,176.0" fill="none" stroke="#5cf" stroke-width="2.6" stroke-linecap="round"/>
<polyline points="220.0,143.0 217.9,143.2 215.8,143.8 213.9,144.9 212.2,146.2 210.9,147.9 209.8,149.8 209.2,151.9 209.0,154.0" fill="none" stroke="#5cf" stroke-width="2.6" stroke-linecap="round"/>
<polyline points="242.0,143.0 239.3,143.0 236.5,143.0 233.8,143.0 231.0,143.0 228.3,143.0 225.5,143.0 222.8,143.0 220.0,143.0" fill="none" stroke="#ffa500" stroke-width="2.6" stroke-linecap="round"/>
<polyline points="165.0,44.0 165.0,46.8 165.0,49.5 165.0,52.3 165.0,55.0 165.0,57.8 165.0,60.5 165.0,63.3 165.0,66.0" fill="none" stroke="#5cf" stroke-width="2.6" stroke-linecap="round"/>
<polyline points="220.0,99.0 222.8,99.0 225.5,99.0 228.3,99.0 231.0,99.0 233.8,99.0 236.5,99.0 239.3,99.0 242.0,99.0" fill="none" stroke="#5cf" stroke-width="2.6" stroke-linecap="round"/>
<polyline points="242.0,99.0 244.8,99.0 247.5,99.0 250.3,99.0 253.0,99.0 255.8,99.0 258.5,99.0 261.3,99.0 264.0,99.0" fill="none" stroke="#5cf" stroke-width="2.6" stroke-linecap="round"/>
<polyline points="264.0,99.0 266.1,98.8 268.2,98.2 270.1,97.1 271.8,95.8 273.1,94.1 274.2,92.2 274.8,90.1 275.0,88.0" fill="none" stroke="#5cf" stroke-width="2.6" stroke-linecap="round"/>
<polyline points="275.0,66.0 275.0,68.8 275.0,71.5 275.0,74.3 275.0,77.0 275.0,79.8 275.0,82.5 275.0,85.3 275.0,88.0" fill="none" stroke="#5cf" stroke-width="2.6" stroke-linecap="round"/>
<polyline points="275.0,66.0 274.8,63.9 274.2,61.8 273.1,59.9 271.8,58.2 270.1,56.9 268.2,55.8 266.1,55.2 264.0,55.0" fill="none" stroke="#5cf" stroke-width="2.6" stroke-linecap="round"/>
<polyline points="253.0,44.0 253.2,46.1 253.8,48.2 254.9,50.1 256.2,51.8 257.9,53.1 259.8,54.2 261.9,54.8 264.0,55.0" fill="none" stroke="#5cf" stroke-width="2.6" stroke-linecap="round"/>
<polyline points="253.0,22.0 253.0,24.8 253.0,27.5 253.0,30.2 253.0,33.0 253.0,35.8 253.0,38.5 253.0,41.3 253.0,44.0" fill="none" stroke="#5cf" stroke-width="2.6" stroke-linecap="round"/>
<polyline points="253.0,22.0 252.8,19.9 252.2,17.8 251.1,15.9 249.8,14.2 248.1,12.9 246.2,11.8 244.1,11.2 242.0,11.0" fill="none" stroke="#5cf" stroke-width="2.6" stroke-linecap="round"/>
<polyline points="220.0,11.0 222.8,11.0 225.5,11.0 228.3,11.0 231.0,11.0 233.8,11.0 236.5,11.0 239.3,11.0 242.0,11.0" fill="none" stroke="#ffa500" stroke-width="2.6" stroke-linecap="round"/>
<text x="4" y="299" font-family="ui-monospace,monospace" font-size="11" fill="#a66">parallel=10  elev=✓  cov=47/81 (58%)</text>
</svg>